<svg id="my-svg" width="100%" xmlns="http://www.w3.org/2000/svg" xmlns:xlink="http://www.w3.org/1999/xlink" class="classDiagram" style="max-width: 1289.74px; background-color: transparent;" viewBox="0 0 1289.7421875 524" role="graphics-document document" aria-roledescription="class"><style>#my-svg{font-size:16px;fill:#102033;}@keyframes edge-animation-frame{from{stroke-dashoffset:0;}}@keyframes dash{to{stroke-dashoffset:0;}}#my-svg .edge-animation-slow{stroke-dasharray:9,5!important;stroke-dashoffset:900;animation:dash 50s linear infinite;stroke-linecap:round;}#my-svg .edge-animation-fast{stroke-dasharray:9,5!important;stroke-dashoffset:900;animation:dash 20s linear infinite;stroke-linecap:round;}#my-svg .error-icon{fill:#FFF3D9;}#my-svg .error-text{fill:#102033;stroke:#102033;}#my-svg .edge-thickness-normal{stroke-width:1px;}#my-svg .edge-thickness-thick{stroke-width:3.5px;}#my-svg .edge-pattern-solid{stroke-dasharray:0;}#my-svg .edge-thickness-invisible{stroke-width:0;fill:none;}#my-svg .edge-pattern-dashed{stroke-dasharray:3;}#my-svg .edge-pattern-dotted{stroke-dasharray:2;}#my-svg .marker{fill:#7A8794;stroke:#7A8794;}#my-svg .marker.cross{stroke:#7A8794;}#my-svg svg{font-size:16px;}#my-svg p{margin:0;}#my-svg g.classGroup text{fill:#5B8DEF;stroke:none;font-size:10px;}#my-svg g.classGroup text .title{font-weight:bolder;}#my-svg .cluster-label text{fill:#102033;}#my-svg .cluster-label span{color:#102033;}#my-svg .cluster-label span p{background-color:transparent;}#my-svg .cluster rect{fill:#F8FAFC;stroke:#CBD5E1;stroke-width:1px;}#my-svg .cluster text{fill:#102033;}#my-svg .cluster span{color:#102033;}#my-svg .nodeLabel,#my-svg .edgeLabel{color:#102033;}#my-svg .noteLabel .nodeLabel,#my-svg .noteLabel .edgeLabel{color:#102033;}#my-svg .edgeLabel .label rect{fill:#E8F3FF;}#my-svg .label text{fill:#102033;}#my-svg .labelBkg{background:#E8F3FF;}#my-svg .edgeLabel .label span{background:#E8F3FF;}#my-svg .classTitle{font-weight:bolder;}#my-svg .node rect,#my-svg .node circle,#my-svg .node ellipse,#my-svg .node polygon,#my-svg .node path{fill:#E8F3FF;stroke:#5B8DEF;stroke-width:1;}#my-svg .divider{stroke:#5B8DEF;stroke-width:1;}#my-svg g.clickable{cursor:pointer;}#my-svg g.classGroup rect{fill:#E8F3FF;stroke:#5B8DEF;}#my-svg g.classGroup line{stroke:#5B8DEF;stroke-width:1;}#my-svg .classLabel .box{stroke:none;stroke-width:0;fill:#E8F3FF;opacity:0.5;}#my-svg .classLabel .label{fill:#5B8DEF;font-size:10px;}#my-svg .relation{stroke:#7A8794;stroke-width:1;fill:none;}#my-svg .dashed-line{stroke-dasharray:3;}#my-svg .dotted-line{stroke-dasharray:1 2;}#my-svg [id$="-compositionStart"],#my-svg .composition{fill:#7A8794!important;stroke:#7A8794!important;stroke-width:1;}#my-svg [id$="-compositionEnd"],#my-svg .composition{fill:#7A8794!important;stroke:#7A8794!important;stroke-width:1;}#my-svg [id$="-dependencyStart"],#my-svg .dependency{fill:#7A8794!important;stroke:#7A8794!important;stroke-width:1;}#my-svg [id$="-dependencyEnd"],#my-svg .dependency{fill:#7A8794!important;stroke:#7A8794!important;stroke-width:1;}#my-svg [id$="-extensionStart"],#my-svg .extension{fill:transparent!important;stroke:#7A8794!important;stroke-width:1;}#my-svg [id$="-extensionEnd"],#my-svg .extension{fill:transparent!important;stroke:#7A8794!important;stroke-width:1;}#my-svg [id$="-aggregationStart"],#my-svg .aggregation{fill:transparent!important;stroke:#7A8794!important;stroke-width:1;}#my-svg [id$="-aggregationEnd"],#my-svg .aggregation{fill:transparent!important;stroke:#7A8794!important;stroke-width:1;}#my-svg [id$="-lollipopStart"],#my-svg .lollipop{fill:#E8F3FF!important;stroke:#7A8794!important;stroke-width:1;}#my-svg [id$="-lollipopEnd"],#my-svg .lollipop{fill:#E8F3FF!important;stroke:#7A8794!important;stroke-width:1;}#my-svg .edgeTerminals{font-size:11px;line-height:initial;}#my-svg .classTitleText{text-anchor:middle;font-size:18px;fill:#102033;}#my-svg .edgeLabel[data-look="neo"]{background-color:#FFFFFF;text-align:center;}#my-svg .edgeLabel[data-look="neo"] p{background-color:#FFFFFF;}#my-svg .edgeLabel[data-look="neo"] rect{opacity:0.5;background-color:#FFFFFF;fill:#FFFFFF;}#my-svg .label-icon{display:inline-block;height:1em;overflow:visible;vertical-align:-0.125em;}#my-svg .node .label-icon path{fill:currentColor;stroke:revert;stroke-width:revert;}#my-svg .node .neo-node{stroke:#5B8DEF;}#my-svg [data-look="neo"].node rect,#my-svg [data-look="neo"].cluster rect,#my-svg [data-look="neo"].node polygon{stroke:url(#my-svg-gradient);filter:drop-shadow( 1px 2px 2px rgba(185,185,185,1));}#my-svg [data-look="neo"].node path{stroke:url(#my-svg-gradient);stroke-width:1px;}#my-svg [data-look="neo"].node .outer-path{filter:drop-shadow( 1px 2px 2px rgba(185,185,185,1));}#my-svg [data-look="neo"].node .neo-line path{stroke:#5B8DEF;filter:none;}#my-svg [data-look="neo"].node circle{stroke:url(#my-svg-gradient);filter:drop-shadow( 1px 2px 2px rgba(185,185,185,1));}#my-svg [data-look="neo"].node circle .state-start{fill:#000000;}#my-svg [data-look="neo"].icon-shape .icon{fill:url(#my-svg-gradient);filter:drop-shadow( 1px 2px 2px rgba(185,185,185,1));}#my-svg [data-look="neo"].icon-shape .icon-neo path{stroke:url(#my-svg-gradient);filter:drop-shadow( 1px 2px 2px rgba(185,185,185,1));}#my-svg :root{--mermaid-font-family:"trebuchet ms",verdana,arial,sans-serif;}#my-svg .Table&gt;*{fill:rgb(233, 251, 248)!important;stroke:rgb(78, 167, 160)!important;color:rgb(16, 32, 51)!important;stroke-width:1.5px!important;}#my-svg .Table span{fill:rgb(233, 251, 248)!important;stroke:rgb(78, 167, 160)!important;color:rgb(16, 32, 51)!important;stroke-width:1.5px!important;}#my-svg .IdTable&gt;*{fill:rgb(255, 243, 217)!important;stroke:rgb(214, 164, 65)!important;color:rgb(16, 32, 51)!important;stroke-width:1.5px!important;}#my-svg .IdTable span{fill:rgb(255, 243, 217)!important;stroke:rgb(214, 164, 65)!important;color:rgb(16, 32, 51)!important;stroke-width:1.5px!important;}#my-svg .IntIdTable&gt;*{fill:rgb(243, 238, 255)!important;stroke:rgb(139, 117, 215)!important;color:rgb(16, 32, 51)!important;stroke-width:1.5px!important;}#my-svg .IntIdTable span{fill:rgb(243, 238, 255)!important;stroke:rgb(139, 117, 215)!important;color:rgb(16, 32, 51)!important;stroke-width:1.5px!important;}#my-svg .LongIdTable&gt;*{fill:rgb(255, 240, 230)!important;stroke:rgb(224, 138, 74)!important;color:rgb(16, 32, 51)!important;stroke-width:1.5px!important;}#my-svg .LongIdTable span{fill:rgb(255, 240, 230)!important;stroke:rgb(224, 138, 74)!important;color:rgb(16, 32, 51)!important;stroke-width:1.5px!important;}#my-svg .UUIDTable&gt;*{fill:rgb(255, 243, 217)!important;stroke:rgb(214, 164, 65)!important;color:rgb(16, 32, 51)!important;stroke-width:1.5px!important;}#my-svg .UUIDTable span{fill:rgb(255, 243, 217)!important;stroke:rgb(214, 164, 65)!important;color:rgb(16, 32, 51)!important;stroke-width:1.5px!important;}#my-svg .CompositeIdTable&gt;*{fill:rgb(243, 238, 255)!important;stroke:rgb(139, 117, 215)!important;color:rgb(16, 32, 51)!important;stroke-width:1.5px!important;}#my-svg .CompositeIdTable span{fill:rgb(243, 238, 255)!important;stroke:rgb(139, 117, 215)!important;color:rgb(16, 32, 51)!important;stroke-width:1.5px!important;}</style><g><defs><marker id="my-svg_class-aggregationStart" class="marker aggregation class" refX="18" refY="7" markerWidth="190" markerHeight="240" orient="auto"><path d="M 18,7 L9,13 L1,7 L9,1 Z"/></marker></defs><defs><marker id="my-svg_class-aggregationEnd" class="marker aggregation class" refX="1" refY="7" markerWidth="20" markerHeight="28" orient="auto"><path d="M 18,7 L9,13 L1,7 L9,1 Z"/></marker></defs><defs><marker id="my-svg_class-aggregationStart-margin" class="marker aggregation class" refX="15" refY="7" markerWidth="190" markerHeight="240" orient="auto" markerUnits="userSpaceOnUse"><path d="M 18,7 L9,13 L1,7 L9,1 Z" style="stroke-width: 2;"/></marker></defs><defs><marker id="my-svg_class-aggregationEnd-margin" class="marker aggregation class" refX="1" refY="7" markerWidth="20" markerHeight="28" orient="auto" markerUnits="userSpaceOnUse"><path d="M 18,7 L9,13 L1,7 L9,1 Z" style="stroke-width: 2;"/></marker></defs><defs><marker id="my-svg_class-extensionStart" class="marker extension class" refX="18" refY="7" markerWidth="20" markerHeight="28" orient="auto" markerUnits="userSpaceOnUse"><path d="M 1,7 L18,13 V 1 Z"/></marker></defs><defs><marker id="my-svg_class-extensionEnd" class="marker extension class" refX="1" refY="7" markerWidth="20" markerHeight="28" orient="auto"><path d="M 1,1 V 13 L18,7 Z"/></marker></defs><marker id="my-svg_class-extensionStart-margin" class="marker extension class" refX="18" refY="7" markerWidth="20" markerHeight="28" orient="auto" markerUnits="userSpaceOnUse" viewBox="0 0 20 14"><polygon points="10,7 18,13 18,1" style="stroke-width: 2; stroke-dasharray: 0;"/></marker><defs><marker id="my-svg_class-extensionEnd-margin" class="marker extension class" refX="9" refY="7" markerWidth="20" markerHeight="28" orient="auto" markerUnits="userSpaceOnUse" viewBox="0 0 20 14"><polygon points="10,1 10,13 18,7" style="stroke-width: 2; stroke-dasharray: 0;"/></marker></defs><defs><marker id="my-svg_class-compositionStart" class="marker composition class" refX="18" refY="7" markerWidth="190" markerHeight="240" orient="auto"><path d="M 18,7 L9,13 L1,7 L9,1 Z"/></marker></defs><defs><marker id="my-svg_class-compositionEnd" class="marker composition class" refX="1" refY="7" markerWidth="20" markerHeight="28" orient="auto"><path d="M 18,7 L9,13 L1,7 L9,1 Z"/></marker></defs><defs><marker id="my-svg_class-compositionStart-margin" class="marker composition class" refX="15" refY="7" markerWidth="190" markerHeight="240" orient="auto" markerUnits="userSpaceOnUse"><path viewBox="0 0 15 15" d="M 18,7 L9,13 L1,7 L9,1 Z" style="stroke-width: 0;"/></marker></defs><defs><marker id="my-svg_class-compositionEnd-margin" class="marker composition class" refX="3.5" refY="7" markerWidth="20" markerHeight="28" orient="auto" markerUnits="userSpaceOnUse"><path d="M 18,7 L9,13 L1,7 L9,1 Z" style="stroke-width: 0;"/></marker></defs><defs><marker id="my-svg_class-dependencyStart" class="marker dependency class" refX="6" refY="7" markerWidth="190" markerHeight="240" orient="auto"><path d="M 5,7 L9,13 L1,7 L9,1 Z"/></marker></defs><defs><marker id="my-svg_class-dependencyEnd" class="marker dependency class" refX="13" refY="7" markerWidth="20" markerHeight="28" orient="auto"><path d="M 18,7 L9,13 L14,7 L9,1 Z"/></marker></defs><defs><marker id="my-svg_class-dependencyStart-margin" class="marker dependency class" refX="4" refY="7" markerWidth="190" markerHeight="240" orient="auto" markerUnits="userSpaceOnUse"><path d="M 5,7 L9,13 L1,7 L9,1 Z" style="stroke-width: 0;"/></marker></defs><defs><marker id="my-svg_class-dependencyEnd-margin" class="marker dependency class" refX="16" refY="7" markerWidth="20" markerHeight="28" orient="auto" markerUnits="userSpaceOnUse"><path d="M 18,7 L9,13 L14,7 L9,1 Z" style="stroke-width: 0;"/></marker></defs><defs><marker id="my-svg_class-lollipopStart" class="marker lollipop class" refX="13" refY="7" markerWidth="190" markerHeight="240" orient="auto"><circle fill="transparent" cx="7" cy="7" r="6"/></marker></defs><defs><marker id="my-svg_class-lollipopEnd" class="marker lollipop class" refX="1" refY="7" markerWidth="190" markerHeight="240" orient="auto"><circle fill="transparent" cx="7" cy="7" r="6"/></marker></defs><defs><marker id="my-svg_class-lollipopStart-margin" class="marker lollipop class" refX="13" refY="7" markerWidth="190" markerHeight="240" orient="auto" markerUnits="userSpaceOnUse"><circle fill="transparent" cx="7" cy="7" r="6" stroke-width="2"/></marker></defs><defs><marker id="my-svg_class-lollipopEnd-margin" class="marker lollipop class" refX="1" refY="7" markerWidth="190" markerHeight="240" orient="auto" markerUnits="userSpaceOnUse"><circle fill="transparent" cx="7" cy="7" r="6" stroke-width="2"/></marker></defs><g class="root"><g class="clusters"/><g class="edgePaths"><path d="M605.348,193.25L605.348,194.542C605.348,195.833,605.348,198.417,605.348,203.875C605.348,209.333,605.348,217.667,605.348,221.833L605.348,226" id="my-svg-id_Table_IdTable_1" class="edge-thickness-normal edge-pattern-solid relation" style=";;;" data-edge="true" data-et="edge" data-id="id_Table_IdTable_1" data-points="W3sieCI6NjA1LjM0NzY1NjI1LCJ5IjoxNzZ9LHsieCI6NjA1LjM0NzY1NjI1LCJ5IjoyMDF9LHsieCI6NjA1LjM0NzY1NjI1LCJ5IjoyMjZ9XQ==" data-look="classic" marker-start="url(#my-svg_class-extensionStart)"/><path d="M465.906,311.12L410.508,321.1C355.109,331.08,244.312,351.04,188.914,365.187C133.516,379.333,133.516,387.667,133.516,391.833L133.516,396" id="my-svg-id_IdTable_IntIdTable_2" class="edge-thickness-normal edge-pattern-solid relation" style=";;;" data-edge="true" data-et="edge" data-id="id_IdTable_IntIdTable_2" data-points="W3sieCI6NDgyLjg4MjgxMjUsInkiOjMwOC4wNjE5MDEzMzIwNzQ5N30seyJ4IjoxMzMuNTE1NjI1LCJ5IjozNzF9LHsieCI6MTMzLjUxNTYyNSwieSI6Mzk2fV0=" data-look="classic" marker-start="url(#my-svg_class-extensionStart)"/><path d="M477.13,354.091L471.823,356.909C466.516,359.727,455.903,365.364,450.596,372.348C445.289,379.333,445.289,387.667,445.289,391.833L445.289,396" id="my-svg-id_IdTable_LongIdTable_3" class="edge-thickness-normal edge-pattern-solid relation" style=";;;" data-edge="true" data-et="edge" data-id="id_IdTable_LongIdTable_3" data-points="W3sieCI6NDkyLjM2NTExOTQ4NTI5NDE0LCJ5IjozNDZ9LHsieCI6NDQ1LjI4OTA2MjUsInkiOjM3MX0seyJ4Ijo0NDUuMjg5MDYyNSwieSI6Mzk2fV0=" data-look="classic" marker-start="url(#my-svg_class-extensionStart)"/><path d="M733.565,354.091L738.872,356.909C744.179,359.727,754.793,365.364,760.099,372.348C765.406,379.333,765.406,387.667,765.406,391.833L765.406,396" id="my-svg-id_IdTable_UUIDTable_4" class="edge-thickness-normal edge-pattern-solid relation" style=";;;" data-edge="true" data-et="edge" data-id="id_IdTable_UUIDTable_4" data-points="W3sieCI6NzE4LjMzMDE5MzAxNDcwNTksInkiOjM0Nn0seyJ4Ijo3NjUuNDA2MjUsInkiOjM3MX0seyJ4Ijo3NjUuNDA2MjUsInkiOjM5Nn1d" data-look="classic" marker-start="url(#my-svg_class-extensionStart)"/><path d="M744.828,309.24L806.607,319.533C868.387,329.826,991.945,350.413,1053.725,364.873C1115.504,379.333,1115.504,387.667,1115.504,391.833L1115.504,396" id="my-svg-id_IdTable_CompositeIdTable_5" class="edge-thickness-normal edge-pattern-solid relation" style=";;;" data-edge="true" data-et="edge" data-id="id_IdTable_CompositeIdTable_5" data-points="W3sieCI6NzI3LjgxMjUsInkiOjMwNi40MDQ1NTU4OTU4NjUyNn0seyJ4IjoxMTE1LjUwMzkwNjI1LCJ5IjozNzF9LHsieCI6MTExNS41MDM5MDYyNSwieSI6Mzk2fV0=" data-look="classic" marker-start="url(#my-svg_class-extensionStart)"/></g><g class="edgeLabels"><g class="edgeLabel"><g class="label" data-id="id_Table_IdTable_1" transform="translate(0, 0)"><foreignObject width="0" height="0"><div xmlns="http://www.w3.org/1999/xhtml" class="labelBkg" style="display: table-cell; white-space: nowrap; line-height: 1.5; max-width: 200px; text-align: center;"><span class="edgeLabel"></span></div></foreignObject></g></g><g class="edgeLabel"><g class="label" data-id="id_IdTable_IntIdTable_2" transform="translate(0, 0)"><foreignObject width="0" height="0"><div xmlns="http://www.w3.org/1999/xhtml" class="labelBkg" style="display: table-cell; white-space: nowrap; line-height: 1.5; max-width: 200px; text-align: center;"><span class="edgeLabel"></span></div></foreignObject></g></g><g class="edgeLabel"><g class="label" data-id="id_IdTable_LongIdTable_3" transform="translate(0, 0)"><foreignObject width="0" height="0"><div xmlns="http://www.w3.org/1999/xhtml" class="labelBkg" style="display: table-cell; white-space: nowrap; line-height: 1.5; max-width: 200px; text-align: center;"><span class="edgeLabel"></span></div></foreignObject></g></g><g class="edgeLabel"><g class="label" data-id="id_IdTable_UUIDTable_4" transform="translate(0, 0)"><foreignObject width="0" height="0"><div xmlns="http://www.w3.org/1999/xhtml" class="labelBkg" style="display: table-cell; white-space: nowrap; line-height: 1.5; max-width: 200px; text-align: center;"><span class="edgeLabel"></span></div></foreignObject></g></g><g class="edgeLabel"><g class="label" data-id="id_IdTable_CompositeIdTable_5" transform="translate(0, 0)"><foreignObject width="0" height="0"><div xmlns="http://www.w3.org/1999/xhtml" class="labelBkg" style="display: table-cell; white-space: nowrap; line-height: 1.5; max-width: 200px; text-align: center;"><span class="edgeLabel"></span></div></foreignObject></g></g></g><g class="nodes"><g class="node default" id="my-svg-classId-Table-0" data-look="classic" transform="translate(605.34765625, 92)"><g class="basic label-container outer-path"><path d="M-111.93359375 -84 L111.93359375 -84 L111.93359375 84 L-111.93359375 84" stroke="none" stroke-width="0" fill="#E9FBF8" style="fill:#E9FBF8;stroke:#4EA7A0;color:#102033;stroke-width:1.5px"/><path d="M-111.93359375 -84 C-57.924309281503284 -84, -3.9150248130065677 -84, 111.93359375 -84 M-111.93359375 -84 C-45.819819152038576 -84, 20.293955445922848 -84, 111.93359375 -84 M111.93359375 -84 C111.93359375 -36.59790956095555, 111.93359375 10.8041808780889, 111.93359375 84 M111.93359375 -84 C111.93359375 -34.90133154501999, 111.93359375 14.197336909960015, 111.93359375 84 M111.93359375 84 C49.86918390051928 84, -12.195225948961436 84, -111.93359375 84 M111.93359375 84 C34.46322714519263 84, -43.007139459614734 84, -111.93359375 84 M-111.93359375 84 C-111.93359375 36.76652215571522, -111.93359375 -10.466955688569556, -111.93359375 -84 M-111.93359375 84 C-111.93359375 19.647739518108978, -111.93359375 -44.704520963782045, -111.93359375 -84" stroke="#4EA7A0" stroke-width="1.5" fill="none" stroke-dasharray="0 0" style="fill:#E9FBF8;stroke:#4EA7A0;color:#102033;stroke-width:1.5px"/></g><g class="annotation-group text" transform="translate(0, -60)"/><g class="label-group text" transform="translate(-19.8828125, -60)"><g class="label" style="font-weight: bolder" transform="translate(0,-12)"><foreignObject width="39.765625" height="24"><div xmlns="http://www.w3.org/1999/xhtml" style="display: table-cell; white-space: nowrap; line-height: 1.5; max-width: 85px; text-align: center;"><span class="nodeLabel markdown-node-label" style="fill:#E9FBF8;stroke:#4EA7A0;color:#102033;stroke-width:1.5px"><p>Table</p></span></div></foreignObject></g></g><g class="members-group text" transform="translate(-99.93359375, -12)"><g class="label" style="" transform="translate(0,-12)"><foreignObject width="132.546875" height="24"><div xmlns="http://www.w3.org/1999/xhtml" style="display: table-cell; white-space: nowrap; line-height: 1.5; max-width: 176px; text-align: center;"><span class="nodeLabel markdown-node-label" style="fill:#E9FBF8;stroke:#4EA7A0;color:#102033;stroke-width:1.5px"><p>+String tableName</p></span></div></foreignObject></g><g class="label" style="" transform="translate(0,12)"><foreignObject width="179.984375" height="24"><div xmlns="http://www.w3.org/1999/xhtml" style="display: table-cell; white-space: nowrap; line-height: 1.5; max-width: 230px; text-align: center;"><span class="nodeLabel markdown-node-label" style="fill:#E9FBF8;stroke:#4EA7A0;color:#102033;stroke-width:1.5px"><p>+PrimaryKey? primaryKey</p></span></div></foreignObject></g><g class="label" style="" transform="translate(0,36)"><foreignObject width="167.59375" height="24"><div xmlns="http://www.w3.org/1999/xhtml" style="display: table-cell; white-space: nowrap; line-height: 1.5; max-width: 253px; text-align: center;"><span class="nodeLabel markdown-node-label" style="fill:#E9FBF8;stroke:#4EA7A0;color:#102033;stroke-width:1.5px"><p>+columns List&lt;Column&gt;</p></span></div></foreignObject></g></g><g class="methods-group text" transform="translate(-99.93359375, 84)"/><g class="divider" style="fill:#E9FBF8;stroke:#4EA7A0;color:#102033;stroke-width:1.5px"><path d="M-111.93359375 -36 C-48.50934725603081 -35.999716688063124, 14.914899237938386 -35.99943337612625, 111.93359375 -35.999 M-111.93359375 -36 C-60.52115256333739 -35.99977034400726, -9.108711376674776 -35.99954068801453, 111.93359375 -35.999" stroke="#4EA7A0" stroke-width="1.5" fill="none" stroke-dasharray="0 0" style="fill:#E9FBF8;stroke:#4EA7A0;color:#102033;stroke-width:1.5px"/></g><g class="divider" style="fill:#E9FBF8;stroke:#4EA7A0;color:#102033;stroke-width:1.5px"><path d="M-111.93359375 60 C-58.03626351077017 60.00024075582867, -4.138933271540338 60.00048151165734, 111.93359375 60.001 M-111.93359375 60 C-39.17640734705648 60.00032500156551, 33.580779055887035 60.000650003131014, 111.93359375 60.001" stroke="#4EA7A0" stroke-width="1.5" fill="none" stroke-dasharray="0 0" style="fill:#E9FBF8;stroke:#4EA7A0;color:#102033;stroke-width:1.5px"/></g></g><g class="node default" id="my-svg-classId-IdTable-1" data-look="classic" transform="translate(605.34765625, 286)"><g class="basic label-container outer-path"><path d="M-122.46484375 -60 L122.46484375 -60 L122.46484375 60 L-122.46484375 60" stroke="none" stroke-width="0" fill="#FFF3D9" style="fill:#FFF3D9;stroke:#D6A441;color:#102033;stroke-width:1.5px"/><path d="M-122.46484375 -60 C-53.9594728068591 -60, 14.545898136281807 -60, 122.46484375 -60 M-122.46484375 -60 C-41.098565836941916 -60, 40.26771207611617 -60, 122.46484375 -60 M122.46484375 -60 C122.46484375 -16.145232856572434, 122.46484375 27.70953428685513, 122.46484375 60 M122.46484375 -60 C122.46484375 -21.98232798733224, 122.46484375 16.03534402533552, 122.46484375 60 M122.46484375 60 C61.146493361197344 60, -0.17185702760531285 60, -122.46484375 60 M122.46484375 60 C39.67785457232114 60, -43.109134605357724 60, -122.46484375 60 M-122.46484375 60 C-122.46484375 32.12350849572907, -122.46484375 4.247016991458132, -122.46484375 -60 M-122.46484375 60 C-122.46484375 25.738565294377004, -122.46484375 -8.522869411245992, -122.46484375 -60" stroke="#D6A441" stroke-width="1.5" fill="none" stroke-dasharray="0 0" style="fill:#FFF3D9;stroke:#D6A441;color:#102033;stroke-width:1.5px"/></g><g class="annotation-group text" transform="translate(0, -36)"/><g class="label-group text" transform="translate(-41.0234375, -36)"><g class="label" style="font-weight: bolder" transform="translate(0,-12)"><foreignObject width="82.046875" height="24"><div xmlns="http://www.w3.org/1999/xhtml" style="display: table-cell; white-space: nowrap; line-height: 1.5; max-width: 164px; text-align: center;"><span class="nodeLabel markdown-node-label" style="fill:#FFF3D9;stroke:#D6A441;color:#102033;stroke-width:1.5px"><p>IdTable&lt;T&gt;</p></span></div></foreignObject></g></g><g class="members-group text" transform="translate(-110.46484375, 12)"><g class="label" style="" transform="translate(0,-12)"><foreignObject width="179.90625" height="24"><div xmlns="http://www.w3.org/1999/xhtml" style="display: table-cell; white-space: nowrap; line-height: 1.5; max-width: 308px; text-align: center;"><span class="nodeLabel markdown-node-label" style="fill:#FFF3D9;stroke:#D6A441;color:#102033;stroke-width:1.5px"><p>+Column&lt;EntityID&lt;T&gt;&gt; id</p></span></div></foreignObject></g></g><g class="methods-group text" transform="translate(-110.46484375, 60)"/><g class="divider" style="fill:#FFF3D9;stroke:#D6A441;color:#102033;stroke-width:1.5px"><path d="M-122.46484375 -12 C-29.04407520065618 -11.999618581277334, 64.37669334868764 -11.999237162554667, 122.46484375 -11.999 M-122.46484375 -12 C-41.829041144641764 -11.99967077979224, 38.80676146071647 -11.99934155958448, 122.46484375 -11.999" stroke="#D6A441" stroke-width="1.5" fill="none" stroke-dasharray="0 0" style="fill:#FFF3D9;stroke:#D6A441;color:#102033;stroke-width:1.5px"/></g><g class="divider" style="fill:#FFF3D9;stroke:#D6A441;color:#102033;stroke-width:1.5px"><path d="M-122.46484375 36 C-41.28298069718316 36.000331449665744, 39.898882355633674 36.00066289933149, 122.46484375 36.001 M-122.46484375 36 C-27.466798094822465 36.00038785843653, 67.53124756035507 36.00077571687307, 122.46484375 36.001" stroke="#D6A441" stroke-width="1.5" fill="none" stroke-dasharray="0 0" style="fill:#FFF3D9;stroke:#D6A441;color:#102033;stroke-width:1.5px"/></g></g><g class="node default" id="my-svg-classId-IntIdTable-2" data-look="classic" transform="translate(133.515625, 456)"><g class="basic label-container outer-path"><path d="M-125.515625 -60 L125.515625 -60 L125.515625 60 L-125.515625 60" stroke="none" stroke-width="0" fill="#F3EEFF" style="fill:#F3EEFF;stroke:#8B75D7;color:#102033;stroke-width:1.5px"/><path d="M-125.515625 -60 C-58.50828519471442 -60, 8.499054610571164 -60, 125.515625 -60 M-125.515625 -60 C-62.35661016221301 -60, 0.8024046755739818 -60, 125.515625 -60 M125.515625 -60 C125.515625 -16.07055463598718, 125.515625 27.858890728025642, 125.515625 60 M125.515625 -60 C125.515625 -23.298639119934826, 125.515625 13.402721760130348, 125.515625 60 M125.515625 60 C64.49038452854617 60, 3.4651440570923455 60, -125.515625 60 M125.515625 60 C53.72779260060075 60, -18.0600397987985 60, -125.515625 60 M-125.515625 60 C-125.515625 13.721808126843953, -125.515625 -32.55638374631209, -125.515625 -60 M-125.515625 60 C-125.515625 30.169033263358855, -125.515625 0.33806652671771076, -125.515625 -60" stroke="#8B75D7" stroke-width="1.5" fill="none" stroke-dasharray="0 0" style="fill:#F3EEFF;stroke:#8B75D7;color:#102033;stroke-width:1.5px"/></g><g class="annotation-group text" transform="translate(0, -36)"/><g class="label-group text" transform="translate(-36.875, -36)"><g class="label" style="font-weight: bolder" transform="translate(0,-12)"><foreignObject width="73.75" height="24"><div xmlns="http://www.w3.org/1999/xhtml" style="display: table-cell; white-space: nowrap; line-height: 1.5; max-width: 116px; text-align: center;"><span class="nodeLabel markdown-node-label" style="fill:#F3EEFF;stroke:#8B75D7;color:#102033;stroke-width:1.5px"><p>IntIdTable</p></span></div></foreignObject></g></g><g class="members-group text" transform="translate(-113.515625, 12)"><g class="label" style="" transform="translate(0,-12)"><foreignObject width="190.15625" height="24"><div xmlns="http://www.w3.org/1999/xhtml" style="display: table-cell; white-space: nowrap; line-height: 1.5; max-width: 316px; text-align: center;"><span class="nodeLabel markdown-node-label" style="fill:#F3EEFF;stroke:#8B75D7;color:#102033;stroke-width:1.5px"><p>+Column&lt;EntityID&lt;Int&gt;&gt; id</p></span></div></foreignObject></g></g><g class="methods-group text" transform="translate(-113.515625, 60)"/><g class="divider" style="fill:#F3EEFF;stroke:#8B75D7;color:#102033;stroke-width:1.5px"><path d="M-125.515625 -12 C-53.614390970746385 -11.999713576560572, 18.28684305850723 -11.999427153121141, 125.515625 -11.999 M-125.515625 -12 C-27.650369659736867 -11.999610147121762, 70.21488568052627 -11.999220294243523, 125.515625 -11.999" stroke="#8B75D7" stroke-width="1.5" fill="none" stroke-dasharray="0 0" style="fill:#F3EEFF;stroke:#8B75D7;color:#102033;stroke-width:1.5px"/></g><g class="divider" style="fill:#F3EEFF;stroke:#8B75D7;color:#102033;stroke-width:1.5px"><path d="M-125.515625 36 C-75.03881008477975 36.00020107781368, -24.56199516955951 36.000402155627356, 125.515625 36.001 M-125.515625 36 C-64.14818929211411 36.000244461339804, -2.780753584228222 36.00048892267961, 125.515625 36.001" stroke="#8B75D7" stroke-width="1.5" fill="none" stroke-dasharray="0 0" style="fill:#F3EEFF;stroke:#8B75D7;color:#102033;stroke-width:1.5px"/></g></g><g class="node default" id="my-svg-classId-LongIdTable-3" data-look="classic" transform="translate(445.2890625, 456)"><g class="basic label-container outer-path"><path d="M-136.2578125 -60 L136.2578125 -60 L136.2578125 60 L-136.2578125 60" stroke="none" stroke-width="0" fill="#FFF0E6" style="fill:#FFF0E6;stroke:#E08A4A;color:#102033;stroke-width:1.5px"/><path d="M-136.2578125 -60 C-54.92513550170821 -60, 26.407541496583576 -60, 136.2578125 -60 M-136.2578125 -60 C-52.48937296463744 -60, 31.27906657072512 -60, 136.2578125 -60 M136.2578125 -60 C136.2578125 -30.771018752217195, 136.2578125 -1.54203750443439, 136.2578125 60 M136.2578125 -60 C136.2578125 -26.962570913119954, 136.2578125 6.0748581737600915, 136.2578125 60 M136.2578125 60 C52.32736132604309 60, -31.60308984791382 60, -136.2578125 60 M136.2578125 60 C81.26873277601001 60, 26.27965305202001 60, -136.2578125 60 M-136.2578125 60 C-136.2578125 23.09280236798083, -136.2578125 -13.814395264038339, -136.2578125 -60 M-136.2578125 60 C-136.2578125 22.90307922573937, -136.2578125 -14.193841548521263, -136.2578125 -60" stroke="#E08A4A" stroke-width="1.5" fill="none" stroke-dasharray="0 0" style="fill:#FFF0E6;stroke:#E08A4A;color:#102033;stroke-width:1.5px"/></g><g class="annotation-group text" transform="translate(0, -36)"/><g class="label-group text" transform="translate(-44.4375, -36)"><g class="label" style="font-weight: bolder" transform="translate(0,-12)"><foreignObject width="88.875" height="24"><div xmlns="http://www.w3.org/1999/xhtml" style="display: table-cell; white-space: nowrap; line-height: 1.5; max-width: 132px; text-align: center;"><span class="nodeLabel markdown-node-label" style="fill:#FFF0E6;stroke:#E08A4A;color:#102033;stroke-width:1.5px"><p>LongIdTable</p></span></div></foreignObject></g></g><g class="members-group text" transform="translate(-124.2578125, 12)"><g class="label" style="" transform="translate(0,-12)"><foreignObject width="204.078125" height="24"><div xmlns="http://www.w3.org/1999/xhtml" style="display: table-cell; white-space: nowrap; line-height: 1.5; max-width: 332px; text-align: center;"><span class="nodeLabel markdown-node-label" style="fill:#FFF0E6;stroke:#E08A4A;color:#102033;stroke-width:1.5px"><p>+Column&lt;EntityID&lt;Long&gt;&gt; id</p></span></div></foreignObject></g></g><g class="methods-group text" transform="translate(-124.2578125, 60)"/><g class="divider" style="fill:#FFF0E6;stroke:#E08A4A;color:#102033;stroke-width:1.5px"><path d="M-136.2578125 -12 C-59.29963878698567 -11.999717600876233, 17.658534926028665 -11.999435201752465, 136.2578125 -11.999 M-136.2578125 -12 C-81.10950160060348 -11.999797632481076, -25.96119070120696 -11.999595264962151, 136.2578125 -11.999" stroke="#E08A4A" stroke-width="1.5" fill="none" stroke-dasharray="0 0" style="fill:#FFF0E6;stroke:#E08A4A;color:#102033;stroke-width:1.5px"/></g><g class="divider" style="fill:#FFF0E6;stroke:#E08A4A;color:#102033;stroke-width:1.5px"><path d="M-136.2578125 36 C-71.54902380507023 36.000237449829505, -6.840235110140469 36.00047489965902, 136.2578125 36.001 M-136.2578125 36 C-39.121104805210194 36.00035644454403, 58.01560288957961 36.000712889088064, 136.2578125 36.001" stroke="#E08A4A" stroke-width="1.5" fill="none" stroke-dasharray="0 0" style="fill:#FFF0E6;stroke:#E08A4A;color:#102033;stroke-width:1.5px"/></g></g><g class="node default" id="my-svg-classId-UUIDTable-4" data-look="classic" transform="translate(765.40625, 456)"><g class="basic label-container outer-path"><path d="M-133.859375 -60 L133.859375 -60 L133.859375 60 L-133.859375 60" stroke="none" stroke-width="0" fill="#FFF3D9" style="fill:#FFF3D9;stroke:#D6A441;color:#102033;stroke-width:1.5px"/><path d="M-133.859375 -60 C-69.26700562437388 -60, -4.67463624874776 -60, 133.859375 -60 M-133.859375 -60 C-64.36226739694362 -60, 5.134840206112756 -60, 133.859375 -60 M133.859375 -60 C133.859375 -26.02270517617859, 133.859375 7.95458964764282, 133.859375 60 M133.859375 -60 C133.859375 -15.323752235023058, 133.859375 29.352495529953885, 133.859375 60 M133.859375 60 C53.59573693067425 60, -26.6679011386515 60, -133.859375 60 M133.859375 60 C69.74887153345843 60, 5.638368066916854 60, -133.859375 60 M-133.859375 60 C-133.859375 32.25562406073638, -133.859375 4.511248121472761, -133.859375 -60 M-133.859375 60 C-133.859375 17.972363132450006, -133.859375 -24.055273735099988, -133.859375 -60" stroke="#D6A441" stroke-width="1.5" fill="none" stroke-dasharray="0 0" style="fill:#FFF3D9;stroke:#D6A441;color:#102033;stroke-width:1.5px"/></g><g class="annotation-group text" transform="translate(0, -36)"/><g class="label-group text" transform="translate(-38.09375, -36)"><g class="label" style="font-weight: bolder" transform="translate(0,-12)"><foreignObject width="76.1875" height="24"><div xmlns="http://www.w3.org/1999/xhtml" style="display: table-cell; white-space: nowrap; line-height: 1.5; max-width: 125px; text-align: center;"><span class="nodeLabel markdown-node-label" style="fill:#FFF3D9;stroke:#D6A441;color:#102033;stroke-width:1.5px"><p>UUIDTable</p></span></div></foreignObject></g></g><g class="members-group text" transform="translate(-121.859375, 12)"><g class="label" style="" transform="translate(0,-12)"><foreignObject width="205.625" height="24"><div xmlns="http://www.w3.org/1999/xhtml" style="display: table-cell; white-space: nowrap; line-height: 1.5; max-width: 338px; text-align: center;"><span class="nodeLabel markdown-node-label" style="fill:#FFF3D9;stroke:#D6A441;color:#102033;stroke-width:1.5px"><p>+Column&lt;EntityID&lt;UUID&gt;&gt; id</p></span></div></foreignObject></g></g><g class="methods-group text" transform="translate(-121.859375, 60)"/><g class="divider" style="fill:#FFF3D9;stroke:#D6A441;color:#102033;stroke-width:1.5px"><path d="M-133.859375 -12 C-45.17302829686081 -11.999668733151104, 43.51331840627839 -11.999337466302206, 133.859375 -11.999 M-133.859375 -12 C-41.229410164773114 -11.999654002699343, 51.40055467045377 -11.999308005398687, 133.859375 -11.999" stroke="#D6A441" stroke-width="1.5" fill="none" stroke-dasharray="0 0" style="fill:#FFF3D9;stroke:#D6A441;color:#102033;stroke-width:1.5px"/></g><g class="divider" style="fill:#FFF3D9;stroke:#D6A441;color:#102033;stroke-width:1.5px"><path d="M-133.859375 36 C-69.3712445452282 36.00024088014177, -4.883114090456388 36.00048176028354, 133.859375 36.001 M-133.859375 36 C-35.10182384986801 36.00036888544844, 63.655727300263976 36.00073777089688, 133.859375 36.001" stroke="#D6A441" stroke-width="1.5" fill="none" stroke-dasharray="0 0" style="fill:#FFF3D9;stroke:#D6A441;color:#102033;stroke-width:1.5px"/></g></g><g class="node default" id="my-svg-classId-CompositeIdTable-5" data-look="classic" transform="translate(1115.50390625, 456)"><g class="basic label-container outer-path"><path d="M-166.23828125 -60 L166.23828125 -60 L166.23828125 60 L-166.23828125 60" stroke="none" stroke-width="0" fill="#F3EEFF" style="fill:#F3EEFF;stroke:#8B75D7;color:#102033;stroke-width:1.5px"/><path d="M-166.23828125 -60 C-39.83704445267411 -60, 86.56419234465179 -60, 166.23828125 -60 M-166.23828125 -60 C-39.07530916692207 -60, 88.08766291615586 -60, 166.23828125 -60 M166.23828125 -60 C166.23828125 -24.329365183798473, 166.23828125 11.341269632403055, 166.23828125 60 M166.23828125 -60 C166.23828125 -20.661809898423734, 166.23828125 18.676380203152533, 166.23828125 60 M166.23828125 60 C54.288574284983156 60, -57.66113268003369 60, -166.23828125 60 M166.23828125 60 C88.90859754331557 60, 11.57891383663113 60, -166.23828125 60 M-166.23828125 60 C-166.23828125 29.855586351221547, -166.23828125 -0.2888272975569066, -166.23828125 -60 M-166.23828125 60 C-166.23828125 16.802238768003704, -166.23828125 -26.39552246399259, -166.23828125 -60" stroke="#8B75D7" stroke-width="1.5" fill="none" stroke-dasharray="0 0" style="fill:#F3EEFF;stroke:#8B75D7;color:#102033;stroke-width:1.5px"/></g><g class="annotation-group text" transform="translate(0, -36)"/><g class="label-group text" transform="translate(-65.8359375, -36)"><g class="label" style="font-weight: bolder" transform="translate(0,-12)"><foreignObject width="131.671875" height="24"><div xmlns="http://www.w3.org/1999/xhtml" style="display: table-cell; white-space: nowrap; line-height: 1.5; max-width: 168px; text-align: center;"><span class="nodeLabel markdown-node-label" style="fill:#F3EEFF;stroke:#8B75D7;color:#102033;stroke-width:1.5px"><p>CompositeIdTable</p></span></div></foreignObject></g></g><g class="members-group text" transform="translate(-154.23828125, 12)"><g class="label" style="" transform="translate(0,-12)"><foreignObject width="242.640625" height="24"><div xmlns="http://www.w3.org/1999/xhtml" style="display: table-cell; white-space: nowrap; line-height: 1.5; max-width: 323px; text-align: center;"><span class="nodeLabel markdown-node-label" style="fill:#F3EEFF;stroke:#8B75D7;color:#102033;stroke-width:1.5px"><p>+List&lt;Column&gt; compositeColumns</p></span></div></foreignObject></g></g><g class="methods-group text" transform="translate(-154.23828125, 60)"/><g class="divider" style="fill:#F3EEFF;stroke:#8B75D7;color:#102033;stroke-width:1.5px"><path d="M-166.23828125 -12 C-85.72036429289409 -11.999757823780564, -5.202447335788179 -11.999515647561129, 166.23828125 -11.999 M-166.23828125 -12 C-92.07298699629568 -11.999776930759582, -17.907692742591365 -11.999553861519164, 166.23828125 -11.999" stroke="#8B75D7" stroke-width="1.5" fill="none" stroke-dasharray="0 0" style="fill:#F3EEFF;stroke:#8B75D7;color:#102033;stroke-width:1.5px"/></g><g class="divider" style="fill:#F3EEFF;stroke:#8B75D7;color:#102033;stroke-width:1.5px"><path d="M-166.23828125 36 C-96.57651988434439 36.0002095238258, -26.914758518688785 36.00041904765161, 166.23828125 36.001 M-166.23828125 36 C-90.64699106032103 36.000227358252324, -15.055700870642056 36.000454716504656, 166.23828125 36.001" stroke="#8B75D7" stroke-width="1.5" fill="none" stroke-dasharray="0 0" style="fill:#F3EEFF;stroke:#8B75D7;color:#102033;stroke-width:1.5px"/></g></g></g></g></g><defs><filter id="my-svg-drop-shadow" height="130%" width="130%"><feDropShadow dx="4" dy="4" stdDeviation="0" flood-opacity="0.06" flood-color="#000000"/></filter></defs><defs><filter id="my-svg-drop-shadow-small" height="150%" width="150%"><feDropShadow dx="2" dy="2" stdDeviation="0" flood-opacity="0.06" flood-color="#000000"/></filter></defs><linearGradient id="my-svg-gradient" gradientUnits="objectBoundingBox" x1="0%" y1="0%" x2="100%" y2="0%"><stop offset="0%" stop-color="#5B8DEF" stop-opacity="1"/><stop offset="100%" stop-color="#58A978" stop-opacity="1"/></linearGradient></svg>