<svg xmlns="http://www.w3.org/2000/svg" viewBox="0 0 1560 940" width="1560" height="940" role="img" aria-label="Fastjson2 JSON Query Flow">
<defs>
<filter id="shadow" x="-10%" y="-10%" width="120%" height="130%"><feDropShadow dx="2" dy="4" stdDeviation="5" flood-color="#1f2937" flood-opacity="0.12"/></filter>
<marker id="arrowBlue" markerWidth="9" markerHeight="9" refX="8" refY="4.5" orient="auto"><path d="M1,1 L8,4.5 L1,8 Z" fill="#2563eb"/></marker>
<marker id="arrowGreen" markerWidth="9" markerHeight="9" refX="8" refY="4.5" orient="auto"><path d="M1,1 L8,4.5 L1,8 Z" fill="#16a34a"/></marker>
<marker id="arrowPink" markerWidth="9" markerHeight="9" refX="8" refY="4.5" orient="auto"><path d="M1,1 L8,4.5 L1,8 Z" fill="#db2777"/></marker>
<marker id="arrowOrange" markerWidth="9" markerHeight="9" refX="8" refY="4.5" orient="auto"><path d="M1,1 L8,4.5 L1,8 Z" fill="#ea580c"/></marker>
<marker id="arrowPurple" markerWidth="9" markerHeight="9" refX="8" refY="4.5" orient="auto"><path d="M1,1 L8,4.5 L1,8 Z" fill="#7c3aed"/></marker>
<style>
.canvas{fill:#f6f9fc}.frame{fill:#fff;stroke:#d7e2ec;stroke-width:1.5}
.title{font-family:"Architects Daughter","Comic Sans MS",cursive;font-size:31px;fill:#1e293b}
.subtitle,.detail{font-family:"Comic Mono","Comic Sans MS","Comic Sans","Comic Neue",Arial,sans-serif;fill:#536476}
.subtitle{font-size:13px}.detail{font-size:12px}.tiny{font-family:"Comic Mono","Comic Sans MS","Comic Sans","Comic Neue",Arial,sans-serif;font-size:10px;fill:#64748b}
.label{font-family:"Architects Daughter","Comic Sans MS",cursive;font-size:16px;fill:#1e293b}
.panelTitle{font-family:"Architects Daughter","Comic Sans MS",cursive;font-size:12px;letter-spacing:.08em;fill:#94a3b8}
.card{stroke-width:1.7;filter:url(#shadow)}.panel{fill:#f8fafc;stroke:#d7e2ec;stroke-width:1.2}
.arrow{fill:none;stroke:#2563eb;stroke-width:2;stroke-linecap:round;stroke-linejoin:round;marker-end:url(#arrowBlue)}
.mapLine{fill:none;stroke:#16a34a;stroke-width:1.9;stroke-linecap:round;stroke-linejoin:round;marker-end:url(#arrowGreen)}
.codecLine{fill:none;stroke:#db2777;stroke-width:1.9;stroke-linecap:round;stroke-linejoin:round;marker-end:url(#arrowPink)}
.dbUse{fill:none;stroke:#ea580c;stroke-width:2;stroke-linecap:round;stroke-linejoin:round;marker-end:url(#arrowOrange)}
.runtimeUse{fill:none;stroke:#7c3aed;stroke-width:1.9;stroke-dasharray:6 5;stroke-linecap:round;stroke-linejoin:round;marker-end:url(#arrowPurple)}
.inheritStem{fill:none;stroke:#475569;stroke-width:1.8;stroke-linecap:round;stroke-linejoin:round}
</style>
</defs>
<rect width="1560" height="940" class="canvas"/>
<rect x="20" y="20" width="1520" height="900" rx="16" class="frame"/>
<text x="48" y="58" class="title">Fastjson2 JSON Query Flow</text>
<text x="48" y="80" class="subtitle">FastjsonColumnTest and FastjsonBColumnTest persist DataHolder models, query nested JSON, and use Fastjson array tables</text>
<rect x="58" y="130" width="300" height="640" rx="12" class="panel"/><text x="208" y="122" class="panelTitle" text-anchor="middle">TESTS</text>
<desc>FastjsonColumnTest</desc><rect x="96" y="184" width="224" height="70" rx="10" fill="#dbeafe" stroke="#3b82f6" class="card"/>
<text x="208" y="209" class="label" text-anchor="middle">FastjsonColumnTest</text>
<text x="208" y="240" class="detail" text-anchor="middle">JSON column</text>
<desc>FastjsonBColumnTest</desc><rect x="96" y="352" width="224" height="70" rx="10" fill="#fce7f3" stroke="#db2777" class="card"/>
<text x="208" y="377" class="label" text-anchor="middle">FastjsonBColumnTest</text>
<text x="208" y="408" class="detail" text-anchor="middle">JSONB column</text>
<desc>FastjsonSchema</desc><rect x="96" y="520" width="224" height="70" rx="10" fill="#e2e8f0" stroke="#64748b" class="card"/>
<text x="208" y="545" class="label" text-anchor="middle">FastjsonSchema</text>
<text x="208" y="576" class="detail" text-anchor="middle">shared fixtures</text>
<rect x="430" y="130" width="318" height="640" rx="12" class="panel"/><text x="589" y="122" class="panelTitle" text-anchor="middle">SERIALIZATION</text>
<desc>DataHolder</desc><rect x="474" y="194" width="230" height="66" rx="10" fill="#dcfce7" stroke="#16a34a" class="card"/>
<text x="589" y="219" class="label" text-anchor="middle">DataHolder</text>
<text x="589" y="246" class="detail" text-anchor="middle">User + state</text>
<desc>FastjsonSerializer</desc><rect x="474" y="332" width="230" height="66" rx="10" fill="#fef3c7" stroke="#d97706" class="card"/>
<text x="589" y="357" class="label" text-anchor="middle">FastjsonSerializer</text>
<text x="589" y="384" class="detail" text-anchor="middle">Fastjson2 codec</text>
<desc>fastjson / fastjsonb</desc><rect x="474" y="470" width="230" height="66" rx="10" fill="#ede9fe" stroke="#7c3aed" class="card"/>
<text x="589" y="495" class="label" text-anchor="middle">fastjson / fastjsonb</text>
<text x="589" y="522" class="detail" text-anchor="middle">ColumnType builders</text>
<desc>transform/default</desc><rect x="474" y="608" width="230" height="66" rx="10" fill="#ccfbf1" stroke="#0f766e" class="card"/>
<text x="589" y="633" class="label" text-anchor="middle">transform/default</text>
<text x="589" y="660" class="detail" text-anchor="middle">nullable / generated</text>
<rect x="824" y="130" width="300" height="640" rx="12" class="panel"/><text x="974" y="122" class="panelTitle" text-anchor="middle">TABLES</text>
<rect x="864" y="176" width="220" height="126" rx="10" fill="#fff" stroke="#3b82f6" class="card"/>
<path d="M864,218 L864,186 Q864,176 874,176 L1074,176 Q1084,176 1084,186 L1084,218 Z" fill="#dbeafe"/>
<text x="974" y="204" class="label" text-anchor="middle">FastjsonTable</text>
<text x="880" y="244" class="tiny">fastjson_column JSON</text>
<text x="880" y="262" class="tiny">FastjsonEntity</text>
<rect x="864" y="346" width="220" height="126" rx="10" fill="#fff" stroke="#db2777" class="card"/>
<path d="M864,388 L864,356 Q864,346 874,346 L1074,346 Q1084,346 1084,356 L1084,388 Z" fill="#fce7f3"/>
<text x="974" y="374" class="label" text-anchor="middle">FastjsonBTable</text>
<text x="880" y="414" class="tiny">fastjson_b_column JSONB</text>
<text x="880" y="432" class="tiny">FastjsonBEntity</text>
<rect x="864" y="536" width="220" height="132" rx="10" fill="#fff" stroke="#16a34a" class="card"/>
<path d="M864,578 L864,546 Q864,536 874,536 L1074,536 Q1084,536 1084,546 L1084,578 Z" fill="#dcfce7"/>
<text x="974" y="564" class="label" text-anchor="middle">Fastjson arrays</text>
<text x="880" y="604" class="tiny">groups JSON/JSONB</text>
<text x="880" y="622" class="tiny">numbers JSON/JSONB</text>
<rect x="1194" y="130" width="204" height="640" rx="12" class="panel"/><text x="1296" y="122" class="panelTitle" text-anchor="middle">QUERY DSL</text>
<desc>insert/update</desc><rect x="1224" y="184" width="144" height="58" rx="10" fill="#dcfce7" stroke="#16a34a" class="card"/>
<text x="1296" y="209" class="label" text-anchor="middle">insert/update</text>
<text x="1296" y="228" class="detail" text-anchor="middle">round trip</text>
<desc>extract</desc><rect x="1224" y="312" width="144" height="58" rx="10" fill="#ede9fe" stroke="#7c3aed" class="card"/>
<text x="1296" y="337" class="label" text-anchor="middle">extract</text>
<text x="1296" y="356" class="detail" text-anchor="middle">path slice</text>
<desc>contains</desc><rect x="1224" y="440" width="144" height="58" rx="10" fill="#fce7f3" stroke="#db2777" class="card"/>
<text x="1296" y="465" class="label" text-anchor="middle">contains</text>
<text x="1296" y="484" class="detail" text-anchor="middle">JSON predicate</text>
<desc>exists</desc><rect x="1224" y="568" width="144" height="58" rx="10" fill="#fef3c7" stroke="#d97706" class="card"/>
<text x="1296" y="593" class="label" text-anchor="middle">exists</text>
<text x="1296" y="612" class="detail" text-anchor="middle">path exists</text>
<path d="M1428,365 C1428,344 1532,344 1532,365 L1532,549 C1532,570 1428,570 1428,549 Z" fill="#fff" stroke="#ea580c" stroke-width="1.7" class="card"/>
<ellipse cx="1480" cy="365" rx="52" ry="17" fill="#ffedd5" stroke="#ea580c" stroke-width="1.7"/>
<path d="M1428,549 C1428,570 1532,570 1532,549" fill="none" stroke="#ea580c" stroke-width="1.7"/>
<text x="1480" y="400" class="label" text-anchor="middle">DB</text>
<text x="1442" y="434" class="tiny">Postgres</text>
<text x="1442" y="452" class="tiny">MySQL V8</text>
<text x="1442" y="470" class="tiny">H2 JSON</text>
<path d="M320,219 L398,219 L398,227 L474,227" class="arrow"/>
<path d="M320,387 L398,387 L398,365 L474,365" class="arrow"/>
<path d="M320,555 L398,555 L398,641 L474,641" class="runtimeUse"/>
<path d="M704,227 L784,227 L784,239 L864,239" class="mapLine"/>
<path d="M704,365 L784,365 L784,409 L864,409" class="mapLine"/>
<path d="M704,503 L784,503 L784,602 L864,602" class="mapLine"/>
<path d="M1084,239 L1160,239 L1160,213 L1224,213" class="arrow"/>
<path d="M1084,409 L1160,409 L1160,341 L1224,341" class="arrow"/>
<path d="M1084,409 L1160,409 L1160,469 L1224,469" class="codecLine"/>
<path d="M1084,602 L1160,602 L1160,597 L1224,597" class="runtimeUse"/>
<path d="M1368,213 L1404,213 L1404,414 L1428,414" class="dbUse"/>
<path d="M1368,341 L1404,341 L1404,448 L1428,448" class="dbUse"/>
<path d="M1368,469 L1404,469 L1404,482 L1428,482" class="dbUse"/>
<path d="M1368,597 L1404,597 L1404,604 L1480,604 L1480,566" class="dbUse"/>
<rect x="128" y="838" width="1196" height="52" rx="10" fill="#ecfdf5" stroke="#86efac" stroke-width="1.3"/>
<text x="726" y="869" class="detail" text-anchor="middle">Source check: Fastjson tests cover insert/update, extract, contains, exists, arrays, upsert, defaults, and DAO JSONB usage.</text>
</svg>
