<svg id="my-svg" width="100%" xmlns="http://www.w3.org/2000/svg" xmlns:xlink="http://www.w3.org/1999/xlink" class="erDiagram" style="max-width: 414.203px; background-color: transparent;" viewBox="0 0 414.203125 715.5" role="graphics-document document" aria-roledescription="er"><style>#my-svg{font-size:16px;fill:#102033;}@keyframes edge-animation-frame{from{stroke-dashoffset:0;}}@keyframes dash{to{stroke-dashoffset:0;}}#my-svg .edge-animation-slow{stroke-dasharray:9,5!important;stroke-dashoffset:900;animation:dash 50s linear infinite;stroke-linecap:round;}#my-svg .edge-animation-fast{stroke-dasharray:9,5!important;stroke-dashoffset:900;animation:dash 20s linear infinite;stroke-linecap:round;}#my-svg .error-icon{fill:#FFF3D9;}#my-svg .error-text{fill:#102033;stroke:#102033;}#my-svg .edge-thickness-normal{stroke-width:1px;}#my-svg .edge-thickness-thick{stroke-width:3.5px;}#my-svg .edge-pattern-solid{stroke-dasharray:0;}#my-svg .edge-thickness-invisible{stroke-width:0;fill:none;}#my-svg .edge-pattern-dashed{stroke-dasharray:3;}#my-svg .edge-pattern-dotted{stroke-dasharray:2;}#my-svg .marker{fill:#7A8794;stroke:#7A8794;}#my-svg .marker.cross{stroke:#7A8794;}#my-svg svg{font-size:16px;}#my-svg p{margin:0;}#my-svg .entityBox{fill:#E8F3FF;stroke:#5B8DEF;}#my-svg .relationshipLabelBox{fill:#FFF3D9;opacity:0.7;background-color:#FFF3D9;}#my-svg .relationshipLabelBox rect{opacity:0.5;}#my-svg .labelBkg{background-color:rgba(255, 243, 217, 0.5);}#my-svg .edgeLabel{background-color:#FFFFFF;}#my-svg .edgeLabel .label rect{fill:#FFFFFF;}#my-svg .edgeLabel .label text{fill:#102033;}#my-svg .edgeLabel .label{fill:#5B8DEF;font-size:14px;}#my-svg .label{color:#102033;}#my-svg .edge-pattern-dashed{stroke-dasharray:8,8;}#my-svg .node rect,#my-svg .node circle,#my-svg .node ellipse,#my-svg .node polygon{fill:#E8F3FF;stroke:#5B8DEF;stroke-width:1px;}#my-svg .relationshipLine{stroke:#7A8794;stroke-width:1px;fill:none;}#my-svg .marker{fill:none!important;stroke:#7A8794!important;stroke-width:1;}#my-svg [data-look=neo].labelBkg{background-color:rgba(255, 243, 217, 0.5);}#my-svg .node .neo-node{stroke:#5B8DEF;}#my-svg [data-look="neo"].node rect,#my-svg [data-look="neo"].cluster rect,#my-svg [data-look="neo"].node polygon{stroke:url(#my-svg-gradient);filter:drop-shadow( 1px 2px 2px rgba(185,185,185,1));}#my-svg [data-look="neo"].node path{stroke:url(#my-svg-gradient);stroke-width:1px;}#my-svg [data-look="neo"].node .outer-path{filter:drop-shadow( 1px 2px 2px rgba(185,185,185,1));}#my-svg [data-look="neo"].node .neo-line path{stroke:#5B8DEF;filter:none;}#my-svg [data-look="neo"].node circle{stroke:url(#my-svg-gradient);filter:drop-shadow( 1px 2px 2px rgba(185,185,185,1));}#my-svg [data-look="neo"].node circle .state-start{fill:#000000;}#my-svg [data-look="neo"].icon-shape .icon{fill:url(#my-svg-gradient);filter:drop-shadow( 1px 2px 2px rgba(185,185,185,1));}#my-svg [data-look="neo"].icon-shape .icon-neo path{stroke:url(#my-svg-gradient);filter:drop-shadow( 1px 2px 2px rgba(185,185,185,1));}#my-svg :root{--mermaid-font-family:"trebuchet ms",verdana,arial,sans-serif;}</style><g><defs><marker id="my-svg_er-onlyOneStart" class="marker onlyOne er" refX="0" refY="9" markerWidth="18" markerHeight="18" orient="auto"><path d="M9,0 L9,18 M15,0 L15,18"/></marker></defs><defs><marker id="my-svg_er-onlyOneEnd" class="marker onlyOne er" refX="18" refY="9" markerWidth="18" markerHeight="18" orient="auto"><path d="M3,0 L3,18 M9,0 L9,18"/></marker></defs><defs><marker id="my-svg_er-zeroOrOneStart" class="marker zeroOrOne er" refX="0" refY="9" markerWidth="30" markerHeight="18" orient="auto"><circle fill="white" cx="21" cy="9" r="6"/><path d="M9,0 L9,18"/></marker></defs><defs><marker id="my-svg_er-zeroOrOneEnd" class="marker zeroOrOne er" refX="30" refY="9" markerWidth="30" markerHeight="18" orient="auto"><circle fill="white" cx="9" cy="9" r="6"/><path d="M21,0 L21,18"/></marker></defs><defs><marker id="my-svg_er-oneOrMoreStart" class="marker oneOrMore er" refX="18" refY="18" markerWidth="45" markerHeight="36" orient="auto"><path d="M0,18 Q 18,0 36,18 Q 18,36 0,18 M42,9 L42,27"/></marker></defs><defs><marker id="my-svg_er-oneOrMoreEnd" class="marker oneOrMore er" refX="27" refY="18" markerWidth="45" markerHeight="36" orient="auto"><path d="M3,9 L3,27 M9,18 Q27,0 45,18 Q27,36 9,18"/></marker></defs><defs><marker id="my-svg_er-zeroOrMoreStart" class="marker zeroOrMore er" refX="18" refY="18" markerWidth="57" markerHeight="36" orient="auto"><circle fill="white" cx="48" cy="18" r="6"/><path d="M0,18 Q18,0 36,18 Q18,36 0,18"/></marker></defs><defs><marker id="my-svg_er-zeroOrMoreEnd" class="marker zeroOrMore er" refX="39" refY="18" markerWidth="57" markerHeight="36" orient="auto"><circle fill="white" cx="9" cy="18" r="6"/><path d="M21,18 Q39,0 57,18 Q39,36 21,18"/></marker></defs><g class="root"><g class="clusters"/><g class="edgePaths"><path d="M207.102,350L207.102,358.417C207.102,366.833,207.102,383.667,207.102,400.5C207.102,417.333,207.102,434.167,207.102,442.583L207.102,451" id="my-svg-id_entity-persons-1_entity-addresses-0_0" class="edge-thickness-normal edge-pattern-solid relationshipLine" style="undefined;;;undefined" data-edge="true" data-et="edge" data-id="id_entity-persons-1_entity-addresses-0_0" data-points="W3sieCI6MjA3LjEwMTU2MjUsInkiOjM1MH0seyJ4IjoyMDcuMTAxNTYyNSwieSI6NDAwLjV9LHsieCI6MjA3LjEwMTU2MjUsInkiOjQ1MX1d" data-look="classic" marker-start="url(#my-svg_er-zeroOrMoreStart)" marker-end="url(#my-svg_er-onlyOneEnd)"/></g><g class="edgeLabels"><g class="edgeLabel" transform="translate(207.1015625, 400.5)"><g class="label" data-id="id_entity-persons-1_entity-addresses-0_0" transform="translate(-51.2109375, -10.5)"><foreignObject width="102.421875" height="21"><div xmlns="http://www.w3.org/1999/xhtml" class="labelBkg" style="display: table-cell; white-space: nowrap; line-height: 1.5; max-width: 200px; text-align: center;"><span class="edgeLabel"><p>N:1 (address_id)</p></span></div></foreignObject></g></g></g><g class="nodes"><g class="node default" id="my-svg-entity-addresses-0" data-look="classic" transform="translate(207.1015625, 579.25)"><g class="outer-path" style=""><path d="M-165.734375 -128.25 L165.734375 -128.25 L165.734375 128.25 L-165.734375 128.25" stroke="none" stroke-width="0" fill="#E8F3FF"/><path d="M-165.734375 -128.25 C-63.78664400476248 -128.25, 38.16108699047504 -128.25, 165.734375 -128.25 M-165.734375 -128.25 C-66.95148534849791 -128.25, 31.831404303004177 -128.25, 165.734375 -128.25 M165.734375 -128.25 C165.734375 -64.08548735558496, 165.734375 0.07902528883008131, 165.734375 128.25 M165.734375 -128.25 C165.734375 -71.81009471184717, 165.734375 -15.370189423694342, 165.734375 128.25 M165.734375 128.25 C70.57334584657592 128.25, -24.587683306848163 128.25, -165.734375 128.25 M165.734375 128.25 C87.44358144839815 128.25, 9.152787896796298 128.25, -165.734375 128.25 M-165.734375 128.25 C-165.734375 27.774773597097806, -165.734375 -72.70045280580439, -165.734375 -128.25 M-165.734375 128.25 C-165.734375 64.63117451398254, -165.734375 1.0123490279650866, -165.734375 -128.25" stroke="#5B8DEF" stroke-width="1.3" fill="none" stroke-dasharray="0 0"/></g><g style="" class="row-rect-odd"><path d="M-165.734375 -85.5 L165.734375 -85.5 L165.734375 -42.75 L-165.734375 -42.75" stroke="none" stroke-width="0" fill="hsl(211.3043478261, 100%, 100%)"/><path d="M-165.734375 -85.5 C-85.44899455630556 -85.5, -5.163614112611128 -85.5, 165.734375 -85.5 M-165.734375 -85.5 C-59.664317380882025 -85.5, 46.40574023823595 -85.5, 165.734375 -85.5 M165.734375 -85.5 C165.734375 -74.69093546922502, 165.734375 -63.88187093845005, 165.734375 -42.75 M165.734375 -85.5 C165.734375 -69.06906399600375, 165.734375 -52.6381279920075, 165.734375 -42.75 M165.734375 -42.75 C35.320139334505626 -42.75, -95.09409633098875 -42.75, -165.734375 -42.75 M165.734375 -42.75 C82.2590632304671 -42.75, -1.2162485390657878 -42.75, -165.734375 -42.75 M-165.734375 -42.75 C-165.734375 -56.9865925090238, -165.734375 -71.2231850180476, -165.734375 -85.5 M-165.734375 -42.75 C-165.734375 -52.392595083363695, -165.734375 -62.03519016672739, -165.734375 -85.5" stroke="#5B8DEF" stroke-width="1.3" fill="none" stroke-dasharray="0 0"/></g><g style="" class="row-rect-even"><path d="M-165.734375 -42.75 L165.734375 -42.75 L165.734375 0 L-165.734375 0" stroke="none" stroke-width="0" fill="hsl(211.3043478261, 100%, 100%)"/><path d="M-165.734375 -42.75 C-49.80820107926759 -42.75, 66.11797284146482 -42.75, 165.734375 -42.75 M-165.734375 -42.75 C-98.47834886671166 -42.75, -31.22232273342331 -42.75, 165.734375 -42.75 M165.734375 -42.75 C165.734375 -27.915388041388397, 165.734375 -13.08077608277679, 165.734375 0 M165.734375 -42.75 C165.734375 -27.004810966023598, 165.734375 -11.2596219320472, 165.734375 0 M165.734375 0 C39.12314851951359 0, -87.48807796097282 0, -165.734375 0 M165.734375 0 C52.64243548355796 0, -60.44950403288408 0, -165.734375 0 M-165.734375 0 C-165.734375 -14.784527325763612, -165.734375 -29.569054651527225, -165.734375 -42.75 M-165.734375 0 C-165.734375 -14.019085408459441, -165.734375 -28.038170816918882, -165.734375 -42.75" stroke="#5B8DEF" stroke-width="1.3" fill="none" stroke-dasharray="0 0"/></g><g style="" class="row-rect-odd"><path d="M-165.734375 0 L165.734375 0 L165.734375 42.75 L-165.734375 42.75" stroke="none" stroke-width="0" fill="hsl(211.3043478261, 100%, 100%)"/><path d="M-165.734375 0 C-39.711663253248446 0, 86.31104849350311 0, 165.734375 0 M-165.734375 0 C-65.71248135259972 0, 34.30941229480055 0, 165.734375 0 M165.734375 0 C165.734375 17.05311696489116, 165.734375 34.10623392978232, 165.734375 42.75 M165.734375 0 C165.734375 13.162118747946195, 165.734375 26.32423749589239, 165.734375 42.75 M165.734375 42.75 C73.99204457857827 42.75, -17.750285842843454 42.75, -165.734375 42.75 M165.734375 42.75 C75.61097940055095 42.75, -14.512416198898109 42.75, -165.734375 42.75 M-165.734375 42.75 C-165.734375 29.12477948740485, -165.734375 15.499558974809705, -165.734375 0 M-165.734375 42.75 C-165.734375 27.63205929326024, -165.734375 12.514118586520478, -165.734375 0" stroke="#5B8DEF" stroke-width="1.3" fill="none" stroke-dasharray="0 0"/></g><g style="" class="row-rect-even"><path d="M-165.734375 42.75 L165.734375 42.75 L165.734375 85.5 L-165.734375 85.5" stroke="none" stroke-width="0" fill="hsl(211.3043478261, 100%, 100%)"/><path d="M-165.734375 42.75 C-51.19003233419343 42.75, 63.354310331613135 42.75, 165.734375 42.75 M-165.734375 42.75 C-88.10708314740944 42.75, -10.479791294818881 42.75, 165.734375 42.75 M165.734375 42.75 C165.734375 54.6966966546164, 165.734375 66.6433933092328, 165.734375 85.5 M165.734375 42.75 C165.734375 59.82011687424742, 165.734375 76.89023374849484, 165.734375 85.5 M165.734375 85.5 C97.89818030987044 85.5, 30.06198561974088 85.5, -165.734375 85.5 M165.734375 85.5 C52.87477855816205 85.5, -59.9848178836759 85.5, -165.734375 85.5 M-165.734375 85.5 C-165.734375 69.85866347398816, -165.734375 54.217326947976304, -165.734375 42.75 M-165.734375 85.5 C-165.734375 76.71985441078169, -165.734375 67.9397088215634, -165.734375 42.75" stroke="#5B8DEF" stroke-width="1.3" fill="none" stroke-dasharray="0 0"/></g><g style="" class="row-rect-odd"><path d="M-165.734375 85.5 L165.734375 85.5 L165.734375 128.25 L-165.734375 128.25" stroke="none" stroke-width="0" fill="hsl(211.3043478261, 100%, 100%)"/><path d="M-165.734375 85.5 C-84.6265144133758 85.5, -3.5186538267516028 85.5, 165.734375 85.5 M-165.734375 85.5 C-97.03751470845252 85.5, -28.34065441690504 85.5, 165.734375 85.5 M165.734375 85.5 C165.734375 94.87782365034406, 165.734375 104.25564730068812, 165.734375 128.25 M165.734375 85.5 C165.734375 101.59460829575828, 165.734375 117.68921659151655, 165.734375 128.25 M165.734375 128.25 C61.2837222328085 128.25, -43.166930534383 128.25, -165.734375 128.25 M165.734375 128.25 C54.48869095875699 128.25, -56.75699308248602 128.25, -165.734375 128.25 M-165.734375 128.25 C-165.734375 117.77139157904287, -165.734375 107.29278315808573, -165.734375 85.5 M-165.734375 128.25 C-165.734375 114.49596195775628, -165.734375 100.74192391551256, -165.734375 85.5" stroke="#5B8DEF" stroke-width="1.3" fill="none" stroke-dasharray="0 0"/></g><g class="label name" transform="translate(-34.671875, -118.875)" style=""><foreignObject width="69.34375" height="24"><div xmlns="http://www.w3.org/1999/xhtml" style="display: table-cell; white-space: nowrap; line-height: 1.5; max-width: 161px; text-align: start;"><span class="nodeLabel"><p>addresses</p></span></div></foreignObject></g><g class="label attribute-type" transform="translate(-153.234375, -76.125)" style=""><foreignObject width="71.90625" height="24"><div xmlns="http://www.w3.org/1999/xhtml" style="display: table-cell; white-space: nowrap; line-height: 1.5; max-width: 184px; text-align: start;"><span class="nodeLabel"><p>BIGSERIAL</p></span></div></foreignObject></g><g class="label attribute-name" transform="translate(-29.359375, -76.125)" style=""><foreignObject width="13.484375" height="24"><div xmlns="http://www.w3.org/1999/xhtml" style="display: table-cell; white-space: nowrap; line-height: 1.5; max-width: 112px; text-align: start;"><span class="nodeLabel"><p>id</p></span></div></foreignObject></g><g class="label attribute-keys" transform="translate(38.484375, -76.125)" style=""><foreignObject width="18.140625" height="24"><div xmlns="http://www.w3.org/1999/xhtml" style="display: table-cell; white-space: nowrap; line-height: 1.5; max-width: 121px; text-align: start;"><span class="nodeLabel"><p>PK</p></span></div></foreignObject></g><g class="label attribute-comment" transform="translate(81.625, -76.125)" style=""><foreignObject width="0" height="0"><div xmlns="http://www.w3.org/1999/xhtml" style="display: table-cell; white-space: nowrap; line-height: 1.5; max-width: 100px; text-align: start;"><span class="nodeLabel"></span></div></foreignObject></g><g class="label attribute-type" transform="translate(-153.234375, -33.375)" style=""><foreignObject width="98.875" height="24"><div xmlns="http://www.w3.org/1999/xhtml" style="display: table-cell; white-space: nowrap; line-height: 1.5; max-width: 208px; text-align: start;"><span class="nodeLabel"><p>VARCHAR_255</p></span></div></foreignObject></g><g class="label attribute-name" transform="translate(-29.359375, -33.375)" style=""><foreignObject width="42.84375" height="24"><div xmlns="http://www.w3.org/1999/xhtml" style="display: table-cell; white-space: nowrap; line-height: 1.5; max-width: 135px; text-align: start;"><span class="nodeLabel"><p>street</p></span></div></foreignObject></g><g class="label attribute-keys" transform="translate(38.484375, -33.375)" style=""><foreignObject width="0" height="0"><div xmlns="http://www.w3.org/1999/xhtml" style="display: table-cell; white-space: nowrap; line-height: 1.5; max-width: 100px; text-align: start;"><span class="nodeLabel"></span></div></foreignObject></g><g class="label attribute-comment" transform="translate(81.625, -33.375)" style=""><foreignObject width="71.609375" height="24"><div xmlns="http://www.w3.org/1999/xhtml" style="display: table-cell; white-space: nowrap; line-height: 1.5; max-width: 179px; text-align: start;"><span class="nodeLabel"><p>NOT NULL</p></span></div></foreignObject></g><g class="label attribute-type" transform="translate(-153.234375, 9.375)" style=""><foreignObject width="98.875" height="24"><div xmlns="http://www.w3.org/1999/xhtml" style="display: table-cell; white-space: nowrap; line-height: 1.5; max-width: 208px; text-align: start;"><span class="nodeLabel"><p>VARCHAR_255</p></span></div></foreignObject></g><g class="label attribute-name" transform="translate(-29.359375, 9.375)" style=""><foreignObject width="26.71875" height="24"><div xmlns="http://www.w3.org/1999/xhtml" style="display: table-cell; white-space: nowrap; line-height: 1.5; max-width: 124px; text-align: start;"><span class="nodeLabel"><p>city</p></span></div></foreignObject></g><g class="label attribute-keys" transform="translate(38.484375, 9.375)" style=""><foreignObject width="0" height="0"><div xmlns="http://www.w3.org/1999/xhtml" style="display: table-cell; white-space: nowrap; line-height: 1.5; max-width: 100px; text-align: start;"><span class="nodeLabel"></span></div></foreignObject></g><g class="label attribute-comment" transform="translate(81.625, 9.375)" style=""><foreignObject width="71.609375" height="24"><div xmlns="http://www.w3.org/1999/xhtml" style="display: table-cell; white-space: nowrap; line-height: 1.5; max-width: 179px; text-align: start;"><span class="nodeLabel"><p>NOT NULL</p></span></div></foreignObject></g><g class="label attribute-type" transform="translate(-153.234375, 52.125)" style=""><foreignObject width="82.09375" height="24"><div xmlns="http://www.w3.org/1999/xhtml" style="display: table-cell; white-space: nowrap; line-height: 1.5; max-width: 192px; text-align: start;"><span class="nodeLabel"><p>VARCHAR_2</p></span></div></foreignObject></g><g class="label attribute-name" transform="translate(-29.359375, 52.125)" style=""><foreignObject width="36.296875" height="24"><div xmlns="http://www.w3.org/1999/xhtml" style="display: table-cell; white-space: nowrap; line-height: 1.5; max-width: 129px; text-align: start;"><span class="nodeLabel"><p>state</p></span></div></foreignObject></g><g class="label attribute-keys" transform="translate(38.484375, 52.125)" style=""><foreignObject width="0" height="0"><div xmlns="http://www.w3.org/1999/xhtml" style="display: table-cell; white-space: nowrap; line-height: 1.5; max-width: 100px; text-align: start;"><span class="nodeLabel"></span></div></foreignObject></g><g class="label attribute-comment" transform="translate(81.625, 52.125)" style=""><foreignObject width="71.609375" height="24"><div xmlns="http://www.w3.org/1999/xhtml" style="display: table-cell; white-space: nowrap; line-height: 1.5; max-width: 179px; text-align: start;"><span class="nodeLabel"><p>NOT NULL</p></span></div></foreignObject></g><g class="label attribute-type" transform="translate(-153.234375, 94.875)" style=""><foreignObject width="90.484375" height="24"><div xmlns="http://www.w3.org/1999/xhtml" style="display: table-cell; white-space: nowrap; line-height: 1.5; max-width: 200px; text-align: start;"><span class="nodeLabel"><p>VARCHAR_10</p></span></div></foreignObject></g><g class="label attribute-name" transform="translate(-29.359375, 94.875)" style=""><foreignObject width="21.078125" height="24"><div xmlns="http://www.w3.org/1999/xhtml" style="display: table-cell; white-space: nowrap; line-height: 1.5; max-width: 120px; text-align: start;"><span class="nodeLabel"><p>zip</p></span></div></foreignObject></g><g class="label attribute-keys" transform="translate(38.484375, 94.875)" style=""><foreignObject width="0" height="0"><div xmlns="http://www.w3.org/1999/xhtml" style="display: table-cell; white-space: nowrap; line-height: 1.5; max-width: 100px; text-align: start;"><span class="nodeLabel"></span></div></foreignObject></g><g class="label attribute-comment" transform="translate(81.625, 94.875)" style=""><foreignObject width="36.796875" height="24"><div xmlns="http://www.w3.org/1999/xhtml" style="display: table-cell; white-space: nowrap; line-height: 1.5; max-width: 143px; text-align: start;"><span class="nodeLabel"><p>NULL</p></span></div></foreignObject></g><g class="divider"><path d="M-165.734375 -85.50005 L-165.734375 -85.49995 L165.734375 -85.49995 L165.734375 -85.50005" stroke="none" stroke-width="0" fill="#E8F3FF" fill-rule="evenodd"/><path d="M-165.734375 -85.50005 C-165.734375 -85.50002582082297, -165.734375 -85.50000164164594, -165.734375 -85.49995 M-165.734375 -85.50005 C-165.734375 -85.50002918709123, -165.734375 -85.50000837418247, -165.734375 -85.49995 M-165.734375 -85.49995 C-48.69395350835755 -85.49995, 68.3464679832849 -85.49995, 165.734375 -85.49995 M-165.734375 -85.49995 C-36.39479936964648 -85.49995, 92.94477626070704 -85.49995, 165.734375 -85.49995 M165.734375 -85.49995 C165.734375 -85.49997632096417, 165.734375 -85.50000264192835, 165.734375 -85.50005 M165.734375 -85.49995 C165.734375 -85.49998325770689, 165.734375 -85.50001651541376, 165.734375 -85.50005 M165.734375 -85.50005 C82.33056172850047 -85.50005, -1.07325154299906 -85.50005, -165.734375 -85.50005 M165.734375 -85.50005 C49.93255726889741 -85.50005, -65.86926046220518 -85.50005, -165.734375 -85.50005" stroke="#5B8DEF" stroke-width="1.3" fill="none" stroke-dasharray="0 0"/></g><g class="divider"><path d="M-41.859425 -85.5 L-41.859325 -85.5 L-41.859325 128.25 L-41.859425 128.25" stroke="none" stroke-width="0" fill="#E8F3FF" fill-rule="evenodd"/><path d="M-41.859425 -85.5 C-41.85939980476403 -85.5, -41.859374609528054 -85.5, -41.859325 -85.5 M-41.859425 -85.5 C-41.859401692558855 -85.5, -41.85937838511771 -85.5, -41.859325 -85.5 M-41.859325 -85.5 C-41.859325 -6.113263635678138, -41.859325 73.27347272864372, -41.859325 128.25 M-41.859325 -85.5 C-41.859325 -16.767292792396645, -41.859325 51.96541441520671, -41.859325 128.25 M-41.859325 128.25 C-41.85936096029443 128.25, -41.85939692058886 128.25, -41.859425 128.25 M-41.859325 128.25 C-41.85935472877822 128.25, -41.859384457556445 128.25, -41.859425 128.25 M-41.859425 128.25 C-41.859425 55.272590427689465, -41.859425 -17.70481914462107, -41.859425 -85.5 M-41.859425 128.25 C-41.859425 56.9271950852049, -41.859425 -14.3956098295902, -41.859425 -85.5" stroke="#5B8DEF" stroke-width="1.3" fill="none" stroke-dasharray="0 0"/></g><g class="divider"><path d="M25.984325 -85.5 L25.984425 -85.5 L25.984425 128.25 L25.984325 128.25" stroke="none" stroke-width="0" fill="#E8F3FF" fill-rule="evenodd"/><path d="M25.984325 -85.5 C25.984357334615364 -85.5, 25.984389669230726 -85.5, 25.984425 -85.5 M25.984325 -85.5 C25.984352228640066 -85.5, 25.984379457280138 -85.5, 25.984425 -85.5 M25.984425 -85.5 C25.984425 -27.842704198436564, 25.984425 29.81459160312687, 25.984425 128.25 M25.984425 -85.5 C25.984425 -0.2528176053121456, 25.984425 84.99436478937571, 25.984425 128.25 M25.984425 128.25 C25.98439661377014 128.25, 25.98436822754028 128.25, 25.984325 128.25 M25.984425 128.25 C25.984397149972548 128.25, 25.984369299945094 128.25, 25.984325 128.25 M25.984325 128.25 C25.984325 74.78172639059079, 25.984325 21.31345278118158, 25.984325 -85.5 M25.984325 128.25 C25.984325 69.77031492491292, 25.984325 11.290629849825848, 25.984325 -85.5" stroke="#5B8DEF" stroke-width="1.3" fill="none" stroke-dasharray="0 0"/></g><g class="divider"><path d="M69.12495 -85.5 L69.12505 -85.5 L69.12505 128.25 L69.12495 128.25" stroke="none" stroke-width="0" fill="#E8F3FF" fill-rule="evenodd"/><path d="M69.12495 -85.5 C69.12497381434505 -85.5, 69.12499762869011 -85.5, 69.12505 -85.5 M69.12495 -85.5 C69.12497616017883 -85.5, 69.12500232035767 -85.5, 69.12505 -85.5 M69.12505 -85.5 C69.12505 -30.888548348945143, 69.12505 23.722903302109714, 69.12505 128.25 M69.12505 -85.5 C69.12505 -2.9519921320357554, 69.12505 79.59601573592849, 69.12505 128.25 M69.12505 128.25 C69.12501684545553 128.25, 69.12498369091107 128.25, 69.12495 128.25 M69.12505 128.25 C69.12501731387715 128.25, 69.1249846277543 128.25, 69.12495 128.25 M69.12495 128.25 C69.12495 55.59606899020676, 69.12495 -17.05786201958648, 69.12495 -85.5 M69.12495 128.25 C69.12495 53.82164770078407, 69.12495 -20.60670459843186, 69.12495 -85.5" stroke="#5B8DEF" stroke-width="1.3" fill="none" stroke-dasharray="0 0"/></g><g class="divider"><path d="M-165.734375 -85.50005 L-165.734375 -85.49995 L165.734375 -85.49995 L165.734375 -85.50005" stroke="none" stroke-width="0" fill="#E8F3FF" fill-rule="evenodd"/><path d="M-165.734375 -85.50005 C-165.734375 -85.50001045399955, -165.734375 -85.4999709079991, -165.734375 -85.49995 M-165.734375 -85.50005 C-165.734375 -85.50002556308138, -165.734375 -85.50000112616276, -165.734375 -85.49995 M-165.734375 -85.49995 C-61.357615337177464 -85.49995, 43.01914432564507 -85.49995, 165.734375 -85.49995 M-165.734375 -85.49995 C-72.17162794292076 -85.49995, 21.39111911415847 -85.49995, 165.734375 -85.49995 M165.734375 -85.49995 C165.734375 -85.49997368943599, 165.734375 -85.49999737887198, 165.734375 -85.50005 M165.734375 -85.49995 C165.734375 -85.49998658720052, 165.734375 -85.50002317440105, 165.734375 -85.50005 M165.734375 -85.50005 C61.24624927897102 -85.50005, -43.24187644205796 -85.50005, -165.734375 -85.50005 M165.734375 -85.50005 C74.96516031279882 -85.50005, -15.80405437440237 -85.50005, -165.734375 -85.50005" stroke="#5B8DEF" stroke-width="1.3" fill="none" stroke-dasharray="0 0"/></g></g><g class="node default" id="my-svg-entity-persons-1" data-look="classic" transform="translate(207.1015625, 179)"><g class="outer-path" style=""><path d="M-199.1015625 -171 L199.1015625 -171 L199.1015625 171 L-199.1015625 171" stroke="none" stroke-width="0" fill="#E8F3FF"/><path d="M-199.1015625 -171 C-103.18781252155425 -171, -7.274062543108499 -171, 199.1015625 -171 M-199.1015625 -171 C-68.82179717096267 -171, 61.457968158074664 -171, 199.1015625 -171 M199.1015625 -171 C199.1015625 -83.53669603836772, 199.1015625 3.926607923264555, 199.1015625 171 M199.1015625 -171 C199.1015625 -48.27383618659897, 199.1015625 74.45232762680206, 199.1015625 171 M199.1015625 171 C117.041922352901 171, 34.982282205801994 171, -199.1015625 171 M199.1015625 171 C46.669863524545406 171, -105.76183545090919 171, -199.1015625 171 M-199.1015625 171 C-199.1015625 43.3967713866991, -199.1015625 -84.2064572266018, -199.1015625 -171 M-199.1015625 171 C-199.1015625 45.04412619982455, -199.1015625 -80.9117476003509, -199.1015625 -171" stroke="#5B8DEF" stroke-width="1.3" fill="none" stroke-dasharray="0 0"/></g><g style="" class="row-rect-odd"><path d="M-199.1015625 -128.25 L199.1015625 -128.25 L199.1015625 -85.5 L-199.1015625 -85.5" stroke="none" stroke-width="0" fill="hsl(211.3043478261, 100%, 100%)"/><path d="M-199.1015625 -128.25 C-99.67180228879981 -128.25, -0.2420420775996206 -128.25, 199.1015625 -128.25 M-199.1015625 -128.25 C-54.362113782932596 -128.25, 90.37733493413481 -128.25, 199.1015625 -128.25 M199.1015625 -128.25 C199.1015625 -118.0792717940909, 199.1015625 -107.90854358818179, 199.1015625 -85.5 M199.1015625 -128.25 C199.1015625 -118.54560328424047, 199.1015625 -108.84120656848094, 199.1015625 -85.5 M199.1015625 -85.5 C64.67151741419966 -85.5, -69.75852767160069 -85.5, -199.1015625 -85.5 M199.1015625 -85.5 C117.02086411665258 -85.5, 34.94016573330515 -85.5, -199.1015625 -85.5 M-199.1015625 -85.5 C-199.1015625 -96.40948868575447, -199.1015625 -107.31897737150894, -199.1015625 -128.25 M-199.1015625 -85.5 C-199.1015625 -100.39779618647222, -199.1015625 -115.29559237294444, -199.1015625 -128.25" stroke="#5B8DEF" stroke-width="1.3" fill="none" stroke-dasharray="0 0"/></g><g style="" class="row-rect-even"><path d="M-199.1015625 -85.5 L199.1015625 -85.5 L199.1015625 -42.75 L-199.1015625 -42.75" stroke="none" stroke-width="0" fill="hsl(211.3043478261, 100%, 100%)"/><path d="M-199.1015625 -85.5 C-102.90609167647335 -85.5, -6.710620852946704 -85.5, 199.1015625 -85.5 M-199.1015625 -85.5 C-70.98049652160915 -85.5, 57.14056945678169 -85.5, 199.1015625 -85.5 M199.1015625 -85.5 C199.1015625 -68.87713613948408, 199.1015625 -52.25427227896815, 199.1015625 -42.75 M199.1015625 -85.5 C199.1015625 -68.87439180148277, 199.1015625 -52.24878360296556, 199.1015625 -42.75 M199.1015625 -42.75 C115.72068028851504 -42.75, 32.33979807703008 -42.75, -199.1015625 -42.75 M199.1015625 -42.75 C59.5412804228946 -42.75, -80.0190016542108 -42.75, -199.1015625 -42.75 M-199.1015625 -42.75 C-199.1015625 -59.21184787735998, -199.1015625 -75.67369575471996, -199.1015625 -85.5 M-199.1015625 -42.75 C-199.1015625 -55.62233496883192, -199.1015625 -68.49466993766384, -199.1015625 -85.5" stroke="#5B8DEF" stroke-width="1.3" fill="none" stroke-dasharray="0 0"/></g><g style="" class="row-rect-odd"><path d="M-199.1015625 -42.75 L199.1015625 -42.75 L199.1015625 0 L-199.1015625 0" stroke="none" stroke-width="0" fill="hsl(211.3043478261, 100%, 100%)"/><path d="M-199.1015625 -42.75 C-41.18544688678875 -42.75, 116.7306687264225 -42.75, 199.1015625 -42.75 M-199.1015625 -42.75 C-85.81160823335622 -42.75, 27.47834603328755 -42.75, 199.1015625 -42.75 M199.1015625 -42.75 C199.1015625 -31.622287177017327, 199.1015625 -20.494574354034654, 199.1015625 0 M199.1015625 -42.75 C199.1015625 -31.92654326026574, 199.1015625 -21.103086520531473, 199.1015625 0 M199.1015625 0 C90.28392289013311 0, -18.533716719733775 0, -199.1015625 0 M199.1015625 0 C90.45736774022116 0, -18.186827019557683 0, -199.1015625 0 M-199.1015625 0 C-199.1015625 -9.949498877462606, -199.1015625 -19.89899775492521, -199.1015625 -42.75 M-199.1015625 0 C-199.1015625 -15.695805596197353, -199.1015625 -31.391611192394706, -199.1015625 -42.75" stroke="#5B8DEF" stroke-width="1.3" fill="none" stroke-dasharray="0 0"/></g><g style="" class="row-rect-even"><path d="M-199.1015625 0 L199.1015625 0 L199.1015625 42.75 L-199.1015625 42.75" stroke="none" stroke-width="0" fill="hsl(211.3043478261, 100%, 100%)"/><path d="M-199.1015625 0 C-88.95113318182077 0, 21.19929613635847 0, 199.1015625 0 M-199.1015625 0 C-78.11052353482357 0, 42.88051543035286 0, 199.1015625 0 M199.1015625 0 C199.1015625 13.40269835787294, 199.1015625 26.80539671574588, 199.1015625 42.75 M199.1015625 0 C199.1015625 12.748796743479843, 199.1015625 25.497593486959687, 199.1015625 42.75 M199.1015625 42.75 C64.08103808118656 42.75, -70.93948633762687 42.75, -199.1015625 42.75 M199.1015625 42.75 C97.61824104763183 42.75, -3.8650804047363465 42.75, -199.1015625 42.75 M-199.1015625 42.75 C-199.1015625 34.060047135228096, -199.1015625 25.37009427045619, -199.1015625 0 M-199.1015625 42.75 C-199.1015625 32.294793176545085, -199.1015625 21.839586353090176, -199.1015625 0" stroke="#5B8DEF" stroke-width="1.3" fill="none" stroke-dasharray="0 0"/></g><g style="" class="row-rect-odd"><path d="M-199.1015625 42.75 L199.1015625 42.75 L199.1015625 85.5 L-199.1015625 85.5" stroke="none" stroke-width="0" fill="hsl(211.3043478261, 100%, 100%)"/><path d="M-199.1015625 42.75 C-117.97183588693056 42.75, -36.842109273861126 42.75, 199.1015625 42.75 M-199.1015625 42.75 C-64.80655017251155 42.75, 69.4884621549769 42.75, 199.1015625 42.75 M199.1015625 42.75 C199.1015625 51.4329354068754, 199.1015625 60.1158708137508, 199.1015625 85.5 M199.1015625 42.75 C199.1015625 53.832504417598514, 199.1015625 64.91500883519703, 199.1015625 85.5 M199.1015625 85.5 C80.89505631365678 85.5, -37.31144987268644 85.5, -199.1015625 85.5 M199.1015625 85.5 C90.13217245001982 85.5, -18.837217599960354 85.5, -199.1015625 85.5 M-199.1015625 85.5 C-199.1015625 71.53317901738833, -199.1015625 57.566358034776655, -199.1015625 42.75 M-199.1015625 85.5 C-199.1015625 74.0204379598047, -199.1015625 62.540875919609384, -199.1015625 42.75" stroke="#5B8DEF" stroke-width="1.3" fill="none" stroke-dasharray="0 0"/></g><g style="" class="row-rect-even"><path d="M-199.1015625 85.5 L199.1015625 85.5 L199.1015625 128.25 L-199.1015625 128.25" stroke="none" stroke-width="0" fill="hsl(211.3043478261, 100%, 100%)"/><path d="M-199.1015625 85.5 C-56.941596150773506 85.5, 85.21837019845299 85.5, 199.1015625 85.5 M-199.1015625 85.5 C-94.49473221349795 85.5, 10.112098073004091 85.5, 199.1015625 85.5 M199.1015625 85.5 C199.1015625 100.19404236972747, 199.1015625 114.88808473945492, 199.1015625 128.25 M199.1015625 85.5 C199.1015625 96.78720047745296, 199.1015625 108.07440095490593, 199.1015625 128.25 M199.1015625 128.25 C84.28994930281043 128.25, -30.521663894379145 128.25, -199.1015625 128.25 M199.1015625 128.25 C57.11565049682238 128.25, -84.87026150635523 128.25, -199.1015625 128.25 M-199.1015625 128.25 C-199.1015625 113.77273271087876, -199.1015625 99.29546542175751, -199.1015625 85.5 M-199.1015625 128.25 C-199.1015625 115.05467310696253, -199.1015625 101.85934621392505, -199.1015625 85.5" stroke="#5B8DEF" stroke-width="1.3" fill="none" stroke-dasharray="0 0"/></g><g style="" class="row-rect-odd"><path d="M-199.1015625 128.25 L199.1015625 128.25 L199.1015625 171 L-199.1015625 171" stroke="none" stroke-width="0" fill="hsl(211.3043478261, 100%, 100%)"/><path d="M-199.1015625 128.25 C-81.45625000442256 128.25, 36.189062491154885 128.25, 199.1015625 128.25 M-199.1015625 128.25 C-118.64997102458334 128.25, -38.198379549166674 128.25, 199.1015625 128.25 M199.1015625 128.25 C199.1015625 138.27546692265895, 199.1015625 148.3009338453179, 199.1015625 171 M199.1015625 128.25 C199.1015625 136.85960489789952, 199.1015625 145.46920979579903, 199.1015625 171 M199.1015625 171 C53.521575790623814 171, -92.05841091875237 171, -199.1015625 171 M199.1015625 171 C46.59377989640228 171, -105.91400270719544 171, -199.1015625 171 M-199.1015625 171 C-199.1015625 160.05398289983992, -199.1015625 149.10796579967987, -199.1015625 128.25 M-199.1015625 171 C-199.1015625 154.42470755834537, -199.1015625 137.84941511669072, -199.1015625 128.25" stroke="#5B8DEF" stroke-width="1.3" fill="none" stroke-dasharray="0 0"/></g><g class="label name" transform="translate(-27.0703125, -161.625)" style=""><foreignObject width="54.140625" height="24"><div xmlns="http://www.w3.org/1999/xhtml" style="display: table-cell; white-space: nowrap; line-height: 1.5; max-width: 149px; text-align: start;"><span class="nodeLabel"><p>persons</p></span></div></foreignObject></g><g class="label attribute-type" transform="translate(-186.6015625, -118.875)" style=""><foreignObject width="71.90625" height="24"><div xmlns="http://www.w3.org/1999/xhtml" style="display: table-cell; white-space: nowrap; line-height: 1.5; max-width: 184px; text-align: start;"><span class="nodeLabel"><p>BIGSERIAL</p></span></div></foreignObject></g><g class="label attribute-name" transform="translate(-62.7265625, -118.875)" style=""><foreignObject width="13.484375" height="24"><div xmlns="http://www.w3.org/1999/xhtml" style="display: table-cell; white-space: nowrap; line-height: 1.5; max-width: 112px; text-align: start;"><span class="nodeLabel"><p>id</p></span></div></foreignObject></g><g class="label attribute-keys" transform="translate(41.0078125, -118.875)" style=""><foreignObject width="18.140625" height="24"><div xmlns="http://www.w3.org/1999/xhtml" style="display: table-cell; white-space: nowrap; line-height: 1.5; max-width: 121px; text-align: start;"><span class="nodeLabel"><p>PK</p></span></div></foreignObject></g><g class="label attribute-comment" transform="translate(84.1484375, -118.875)" style=""><foreignObject width="0" height="0"><div xmlns="http://www.w3.org/1999/xhtml" style="display: table-cell; white-space: nowrap; line-height: 1.5; max-width: 100px; text-align: start;"><span class="nodeLabel"></span></div></foreignObject></g><g class="label attribute-type" transform="translate(-186.6015625, -76.125)" style=""><foreignObject width="90.484375" height="24"><div xmlns="http://www.w3.org/1999/xhtml" style="display: table-cell; white-space: nowrap; line-height: 1.5; max-width: 200px; text-align: start;"><span class="nodeLabel"><p>VARCHAR_50</p></span></div></foreignObject></g><g class="label attribute-name" transform="translate(-62.7265625, -76.125)" style=""><foreignObject width="77.0625" height="24"><div xmlns="http://www.w3.org/1999/xhtml" style="display: table-cell; white-space: nowrap; line-height: 1.5; max-width: 168px; text-align: start;"><span class="nodeLabel"><p>first_name</p></span></div></foreignObject></g><g class="label attribute-keys" transform="translate(41.0078125, -76.125)" style=""><foreignObject width="0" height="0"><div xmlns="http://www.w3.org/1999/xhtml" style="display: table-cell; white-space: nowrap; line-height: 1.5; max-width: 100px; text-align: start;"><span class="nodeLabel"></span></div></foreignObject></g><g class="label attribute-comment" transform="translate(84.1484375, -76.125)" style=""><foreignObject width="71.609375" height="24"><div xmlns="http://www.w3.org/1999/xhtml" style="display: table-cell; white-space: nowrap; line-height: 1.5; max-width: 179px; text-align: start;"><span class="nodeLabel"><p>NOT NULL</p></span></div></foreignObject></g><g class="label attribute-type" transform="translate(-186.6015625, -33.375)" style=""><foreignObject width="90.484375" height="24"><div xmlns="http://www.w3.org/1999/xhtml" style="display: table-cell; white-space: nowrap; line-height: 1.5; max-width: 200px; text-align: start;"><span class="nodeLabel"><p>VARCHAR_50</p></span></div></foreignObject></g><g class="label attribute-name" transform="translate(-62.7265625, -33.375)" style=""><foreignObject width="73.5" height="24"><div xmlns="http://www.w3.org/1999/xhtml" style="display: table-cell; white-space: nowrap; line-height: 1.5; max-width: 165px; text-align: start;"><span class="nodeLabel"><p>last_name</p></span></div></foreignObject></g><g class="label attribute-keys" transform="translate(41.0078125, -33.375)" style=""><foreignObject width="0" height="0"><div xmlns="http://www.w3.org/1999/xhtml" style="display: table-cell; white-space: nowrap; line-height: 1.5; max-width: 100px; text-align: start;"><span class="nodeLabel"></span></div></foreignObject></g><g class="label attribute-comment" transform="translate(84.1484375, -33.375)" style=""><foreignObject width="71.609375" height="24"><div xmlns="http://www.w3.org/1999/xhtml" style="display: table-cell; white-space: nowrap; line-height: 1.5; max-width: 179px; text-align: start;"><span class="nodeLabel"><p>NOT NULL</p></span></div></foreignObject></g><g class="label attribute-type" transform="translate(-186.6015625, 9.375)" style=""><foreignObject width="35.5625" height="24"><div xmlns="http://www.w3.org/1999/xhtml" style="display: table-cell; white-space: nowrap; line-height: 1.5; max-width: 141px; text-align: start;"><span class="nodeLabel"><p>DATE</p></span></div></foreignObject></g><g class="label attribute-name" transform="translate(-62.7265625, 9.375)" style=""><foreignObject width="75.5625" height="24"><div xmlns="http://www.w3.org/1999/xhtml" style="display: table-cell; white-space: nowrap; line-height: 1.5; max-width: 165px; text-align: start;"><span class="nodeLabel"><p>birth_date</p></span></div></foreignObject></g><g class="label attribute-keys" transform="translate(41.0078125, 9.375)" style=""><foreignObject width="0" height="0"><div xmlns="http://www.w3.org/1999/xhtml" style="display: table-cell; white-space: nowrap; line-height: 1.5; max-width: 100px; text-align: start;"><span class="nodeLabel"></span></div></foreignObject></g><g class="label attribute-comment" transform="translate(84.1484375, 9.375)" style=""><foreignObject width="71.609375" height="24"><div xmlns="http://www.w3.org/1999/xhtml" style="display: table-cell; white-space: nowrap; line-height: 1.5; max-width: 179px; text-align: start;"><span class="nodeLabel"><p>NOT NULL</p></span></div></foreignObject></g><g class="label attribute-type" transform="translate(-186.6015625, 52.125)" style=""><foreignObject width="66.9375" height="24"><div xmlns="http://www.w3.org/1999/xhtml" style="display: table-cell; white-space: nowrap; line-height: 1.5; max-width: 176px; text-align: start;"><span class="nodeLabel"><p>BOOLEAN</p></span></div></foreignObject></g><g class="label attribute-name" transform="translate(-62.7265625, 52.125)" style=""><foreignObject width="69.765625" height="24"><div xmlns="http://www.w3.org/1999/xhtml" style="display: table-cell; white-space: nowrap; line-height: 1.5; max-width: 163px; text-align: start;"><span class="nodeLabel"><p>employed</p></span></div></foreignObject></g><g class="label attribute-keys" transform="translate(41.0078125, 52.125)" style=""><foreignObject width="0" height="0"><div xmlns="http://www.w3.org/1999/xhtml" style="display: table-cell; white-space: nowrap; line-height: 1.5; max-width: 100px; text-align: start;"><span class="nodeLabel"></span></div></foreignObject></g><g class="label attribute-comment" transform="translate(84.1484375, 52.125)" style=""><foreignObject width="102.453125" height="24"><div xmlns="http://www.w3.org/1999/xhtml" style="display: table-cell; white-space: nowrap; line-height: 1.5; max-width: 215px; text-align: start;"><span class="nodeLabel"><p>DEFAULT TRUE</p></span></div></foreignObject></g><g class="label attribute-type" transform="translate(-186.6015625, 94.875)" style=""><foreignObject width="98.875" height="24"><div xmlns="http://www.w3.org/1999/xhtml" style="display: table-cell; white-space: nowrap; line-height: 1.5; max-width: 208px; text-align: start;"><span class="nodeLabel"><p>VARCHAR_255</p></span></div></foreignObject></g><g class="label attribute-name" transform="translate(-62.7265625, 94.875)" style=""><foreignObject width="78.734375" height="24"><div xmlns="http://www.w3.org/1999/xhtml" style="display: table-cell; white-space: nowrap; line-height: 1.5; max-width: 170px; text-align: start;"><span class="nodeLabel"><p>occupation</p></span></div></foreignObject></g><g class="label attribute-keys" transform="translate(41.0078125, 94.875)" style=""><foreignObject width="0" height="0"><div xmlns="http://www.w3.org/1999/xhtml" style="display: table-cell; white-space: nowrap; line-height: 1.5; max-width: 100px; text-align: start;"><span class="nodeLabel"></span></div></foreignObject></g><g class="label attribute-comment" transform="translate(84.1484375, 94.875)" style=""><foreignObject width="36.796875" height="24"><div xmlns="http://www.w3.org/1999/xhtml" style="display: table-cell; white-space: nowrap; line-height: 1.5; max-width: 143px; text-align: start;"><span class="nodeLabel"><p>NULL</p></span></div></foreignObject></g><g class="label attribute-type" transform="translate(-186.6015625, 137.625)" style=""><foreignObject width="48.28125" height="24"><div xmlns="http://www.w3.org/1999/xhtml" style="display: table-cell; white-space: nowrap; line-height: 1.5; max-width: 154px; text-align: start;"><span class="nodeLabel"><p>BIGINT</p></span></div></foreignObject></g><g class="label attribute-name" transform="translate(-62.7265625, 137.625)" style=""><foreignObject width="76" height="24"><div xmlns="http://www.w3.org/1999/xhtml" style="display: table-cell; white-space: nowrap; line-height: 1.5; max-width: 168px; text-align: start;"><span class="nodeLabel"><p>address_id</p></span></div></foreignObject></g><g class="label attribute-keys" transform="translate(41.0078125, 137.625)" style=""><foreignObject width="17.609375" height="24"><div xmlns="http://www.w3.org/1999/xhtml" style="display: table-cell; white-space: nowrap; line-height: 1.5; max-width: 121px; text-align: start;"><span class="nodeLabel"><p>FK</p></span></div></foreignObject></g><g class="label attribute-comment" transform="translate(84.1484375, 137.625)" style=""><foreignObject width="0" height="0"><div xmlns="http://www.w3.org/1999/xhtml" style="display: table-cell; white-space: nowrap; line-height: 1.5; max-width: 100px; text-align: start;"><span class="nodeLabel"></span></div></foreignObject></g><g class="divider"><path d="M-199.1015625 -128.25005 L-199.1015625 -128.24995 L199.1015625 -128.24995 L199.1015625 -128.25005" stroke="none" stroke-width="0" fill="#E8F3FF" fill-rule="evenodd"/><path d="M-199.1015625 -128.25005 C-199.1015625 -128.2500277271609, -199.1015625 -128.25000545432184, -199.1015625 -128.24995 M-199.1015625 -128.25005 C-199.1015625 -128.250021166433, -199.1015625 -128.24999233286601, -199.1015625 -128.24995 M-199.1015625 -128.24995 C-89.07850170786922 -128.24995, 20.944559084261556 -128.24995, 199.1015625 -128.24995 M-199.1015625 -128.24995 C-42.90751432968935 -128.24995, 113.2865338406213 -128.24995, 199.1015625 -128.24995 M199.1015625 -128.24995 C199.1015625 -128.2499764477231, 199.1015625 -128.25000289544616, 199.1015625 -128.25005 M199.1015625 -128.24995 C199.1015625 -128.249977180581, 199.1015625 -128.250004361162, 199.1015625 -128.25005 M199.1015625 -128.25005 C106.81492469273074 -128.25005, 14.528286885461483 -128.25005, -199.1015625 -128.25005 M199.1015625 -128.25005 C107.93763915781422 -128.25005, 16.773715815628435 -128.25005, -199.1015625 -128.25005" stroke="#5B8DEF" stroke-width="1.3" fill="none" stroke-dasharray="0 0"/></g><g class="divider"><path d="M-75.2266125 -128.25 L-75.2265125 -128.25 L-75.2265125 171 L-75.2266125 171" stroke="none" stroke-width="0" fill="#E8F3FF" fill-rule="evenodd"/><path d="M-75.2266125 -128.25 C-75.22658566290697 -128.25, -75.22655882581395 -128.25, -75.2265125 -128.25 M-75.2266125 -128.25 C-75.22658662975682 -128.25, -75.22656075951366 -128.25, -75.2265125 -128.25 M-75.2265125 -128.25 C-75.2265125 -28.983129351082297, -75.2265125 70.2837412978354, -75.2265125 171 M-75.2265125 -128.25 C-75.2265125 -59.150326470754706, -75.2265125 9.949347058490588, -75.2265125 171 M-75.2265125 171 C-75.22653577978 171, -75.22655905956 171, -75.2266125 171 M-75.2265125 171 C-75.22654288034472 171, -75.22657326068943 171, -75.2266125 171 M-75.2266125 171 C-75.2266125 75.51148630610436, -75.2266125 -19.97702738779128, -75.2266125 -128.25 M-75.2266125 171 C-75.2266125 74.51485083848146, -75.2266125 -21.97029832303707, -75.2266125 -128.25" stroke="#5B8DEF" stroke-width="1.3" fill="none" stroke-dasharray="0 0"/></g><g class="divider"><path d="M28.5077625 -128.25 L28.5078625 -128.25 L28.5078625 171 L28.5077625 171" stroke="none" stroke-width="0" fill="#E8F3FF" fill-rule="evenodd"/><path d="M28.5077625 -128.25 C28.507801281197832 -128.25, 28.50784006239567 -128.25, 28.5078625 -128.25 M28.5077625 -128.25 C28.507792636357976 -128.25, 28.507822772715954 -128.25, 28.5078625 -128.25 M28.5078625 -128.25 C28.5078625 -29.068663659428438, 28.5078625 70.11267268114312, 28.5078625 171 M28.5078625 -128.25 C28.5078625 -50.08936168243258, 28.5078625 28.071276635134836, 28.5078625 171 M28.5078625 171 C28.507827217397363 171, 28.50779193479472 171, 28.5077625 171 M28.5078625 171 C28.507833089471298 171, 28.507803678942594 171, 28.5077625 171 M28.5077625 171 C28.5077625 71.3772253352422, 28.5077625 -28.245549329515597, 28.5077625 -128.25 M28.5077625 171 C28.5077625 80.27746020820516, 28.5077625 -10.445079583589688, 28.5077625 -128.25" stroke="#5B8DEF" stroke-width="1.3" fill="none" stroke-dasharray="0 0"/></g><g class="divider"><path d="M71.6483875 -128.25 L71.6484875 -128.25 L71.6484875 171 L71.6483875 171" stroke="none" stroke-width="0" fill="#E8F3FF" fill-rule="evenodd"/><path d="M71.6483875 -128.25 C71.64842188047245 -128.25, 71.64845626094493 -128.25, 71.6484875 -128.25 M71.6483875 -128.25 C71.64842500880623 -128.25, 71.64846251761244 -128.25, 71.6484875 -128.25 M71.6484875 -128.25 C71.6484875 -63.466765568404725, 71.6484875 1.3164688631905506, 71.6484875 171 M71.6484875 -128.25 C71.6484875 -57.12906416945171, 71.6484875 13.991871661096582, 71.6484875 171 M71.6484875 171 C71.64846121322562 171, 71.64843492645124 171, 71.6483875 171 M71.6484875 171 C71.64846009003399 171, 71.648432680068 171, 71.6483875 171 M71.6483875 171 C71.6483875 108.8491973404505, 71.6483875 46.69839468090102, 71.6483875 -128.25 M71.6483875 171 C71.6483875 101.61917951642485, 71.6483875 32.2383590328497, 71.6483875 -128.25" stroke="#5B8DEF" stroke-width="1.3" fill="none" stroke-dasharray="0 0"/></g><g class="divider"><path d="M-199.1015625 -128.25005 L-199.1015625 -128.24995 L199.1015625 -128.24995 L199.1015625 -128.25005" stroke="none" stroke-width="0" fill="#E8F3FF" fill-rule="evenodd"/><path d="M-199.1015625 -128.25005 C-199.1015625 -128.25001183770155, -199.1015625 -128.24997367540308, -199.1015625 -128.24995 M-199.1015625 -128.25005 C-199.1015625 -128.2500268441633, -199.1015625 -128.25000368832661, -199.1015625 -128.24995 M-199.1015625 -128.24995 C-40.54600774319289 -128.24995, 118.00954701361422 -128.24995, 199.1015625 -128.24995 M-199.1015625 -128.24995 C-105.992864213929 -128.24995, -12.884165927857993 -128.24995, 199.1015625 -128.24995 M199.1015625 -128.24995 C199.1015625 -128.24997672910584, 199.1015625 -128.2500034582117, 199.1015625 -128.25005 M199.1015625 -128.24995 C199.1015625 -128.2499703674593, 199.1015625 -128.2499907349186, 199.1015625 -128.25005 M199.1015625 -128.25005 C88.66610320313383 -128.25005, -21.76935609373234 -128.25005, -199.1015625 -128.25005 M199.1015625 -128.25005 C79.21045012492083 -128.25005, -40.68066225015835 -128.25005, -199.1015625 -128.25005" stroke="#5B8DEF" stroke-width="1.3" fill="none" stroke-dasharray="0 0"/></g></g></g></g></g><defs><filter id="my-svg-drop-shadow" height="130%" width="130%"><feDropShadow dx="4" dy="4" stdDeviation="0" flood-opacity="0.06" flood-color="#000000"/></filter></defs><defs><filter id="my-svg-drop-shadow-small" height="150%" width="150%"><feDropShadow dx="2" dy="2" stdDeviation="0" flood-opacity="0.06" flood-color="#000000"/></filter></defs><linearGradient id="my-svg-gradient" gradientUnits="objectBoundingBox" x1="0%" y1="0%" x2="100%" y2="0%"><stop offset="0%" stop-color="#5B8DEF" stop-opacity="1"/><stop offset="100%" stop-color="#58A978" stop-opacity="1"/></linearGradient></svg>