<svg xmlns="http://www.w3.org/2000/svg" width="1400" height="932" viewBox="0 0 1400 932" role="img" aria-labelledby="title desc">
  <title id="title">Exposed Workshop module composition</title><desc id="desc">Module composition chart generated from current source layout.</desc>
  <defs><filter id="shadow" x="-8%" y="-8%" width="116%" height="116%"><feDropShadow dx="0" dy="5" stdDeviation="6" flood-color="#203040" flood-opacity="0.09"/></filter>
    <style>.canvas{fill:#F6F9FC}.frame{fill:#FFFFFF;stroke:#D7E2EC;stroke-width:2}.title{font-family:"Architects Daughter","Comic Sans MS","Comic Sans",cursive;font-size:42px;fill:#22344A;font-weight:400}.subtitle{font-family:"Comic Sans MS","Comic Sans","Comic Neue",Arial,sans-serif;font-size:17px;fill:#536476;font-weight:400}.group{filter:url(#shadow);stroke-width:2}.gtitle{font-family:"Architects Daughter","Comic Sans MS","Comic Sans",cursive;font-size:24px;fill:#22344A;font-weight:400}.label{font-family:"Comic Sans MS","Comic Sans","Comic Neue",Arial,sans-serif;font-size:15px;fill:#34465B;font-weight:400}.small{font-family:"Comic Sans MS","Comic Sans","Comic Neue",Arial,sans-serif;font-size:13px;fill:#627184;font-weight:400}.axis{font-family:"Architects Daughter","Comic Sans MS","Comic Sans",cursive;font-size:22px;fill:#22344A;font-weight:400}</style>
  </defs><rect class="canvas" width="1400" height="932"/><rect class="frame" x="36" y="28" width="1328" height="876" rx="24"/>
<text class="title" x="72" y="82">Exposed Workshop module composition</text><text class="subtitle" x="76" y="114">Current source-backed group counts for README orientation.</text>
<text class="axis" x="95" y="191">Shared foundation</text><rect x="385" y="165" width="820" height="34" rx="10" fill="#EEF4F9" stroke="#D7E2EC"/><rect x="385" y="165" width="74" height="34" rx="10" fill="#E8F3FF" stroke="#75A9E8" stroke-width="2"/><text class="label" x="479" y="183" dominant-baseline="middle">1</text>
<text class="axis" x="95" y="243">01 Spring Boot</text><rect x="385" y="217" width="820" height="34" rx="10" fill="#EEF4F9" stroke="#D7E2EC"/><rect x="385" y="217" width="149" height="34" rx="10" fill="#EAF7EF" stroke="#69B888" stroke-width="2"/><text class="label" x="554" y="235" dominant-baseline="middle">2</text>
<text class="axis" x="95" y="295">02 Alternatives To JPA</text><rect x="385" y="269" width="820" height="34" rx="10" fill="#EEF4F9" stroke="#D7E2EC"/><rect x="385" y="269" width="223" height="34" rx="10" fill="#FFF3D9" stroke="#D9AA4D" stroke-width="2"/><text class="label" x="628" y="287" dominant-baseline="middle">3</text>
<text class="axis" x="95" y="347">03 Exposed Basic</text><rect x="385" y="321" width="820" height="34" rx="10" fill="#EEF4F9" stroke="#D7E2EC"/><rect x="385" y="321" width="149" height="34" rx="10" fill="#FDECEF" stroke="#DB7890" stroke-width="2"/><text class="label" x="554" y="339" dominant-baseline="middle">2</text>
<text class="axis" x="95" y="399">04 Exposed Ddl</text><rect x="385" y="373" width="820" height="34" rx="10" fill="#EEF4F9" stroke="#D7E2EC"/><rect x="385" y="373" width="149" height="34" rx="10" fill="#E9F7F6" stroke="#55B5AF" stroke-width="2"/><text class="label" x="554" y="391" dominant-baseline="middle">2</text>
<text class="axis" x="95" y="451">05 Exposed Dml</text><rect x="385" y="425" width="820" height="34" rx="10" fill="#EEF4F9" stroke="#D7E2EC"/><rect x="385" y="425" width="372" height="34" rx="10" fill="#F1ECFF" stroke="#A58BE3" stroke-width="2"/><text class="label" x="777" y="443" dominant-baseline="middle">5</text>
<text class="axis" x="95" y="503">06 Advanced</text><rect x="385" y="477" width="820" height="34" rx="10" fill="#EEF4F9" stroke="#D7E2EC"/><rect x="385" y="477" width="820" height="34" rx="10" fill="#F7F1E7" stroke="#B68C55" stroke-width="2"/><text class="label" x="1225" y="495" dominant-baseline="middle">11</text>
<text class="axis" x="95" y="555">07 JPA</text><rect x="385" y="529" width="820" height="34" rx="10" fill="#EEF4F9" stroke="#D7E2EC"/><rect x="385" y="529" width="149" height="34" rx="10" fill="#EEF6D9" stroke="#91AA58" stroke-width="2"/><text class="label" x="554" y="547" dominant-baseline="middle">2</text>
<text class="axis" x="95" y="607">08 Coroutines</text><rect x="385" y="581" width="820" height="34" rx="10" fill="#EEF4F9" stroke="#D7E2EC"/><rect x="385" y="581" width="149" height="34" rx="10" fill="#E8F3FF" stroke="#75A9E8" stroke-width="2"/><text class="label" x="554" y="599" dominant-baseline="middle">2</text>
<text class="axis" x="95" y="659">09 Spring</text><rect x="385" y="633" width="820" height="34" rx="10" fill="#EEF4F9" stroke="#D7E2EC"/><rect x="385" y="633" width="521" height="34" rx="10" fill="#EAF7EF" stroke="#69B888" stroke-width="2"/><text class="label" x="926" y="651" dominant-baseline="middle">7</text>
<text class="axis" x="95" y="711">10 Multi Tenant</text><rect x="385" y="685" width="820" height="34" rx="10" fill="#EEF4F9" stroke="#D7E2EC"/><rect x="385" y="685" width="223" height="34" rx="10" fill="#FFF3D9" stroke="#D9AA4D" stroke-width="2"/><text class="label" x="628" y="703" dominant-baseline="middle">3</text>
<text class="axis" x="95" y="763">11 High Performance</text><rect x="385" y="737" width="820" height="34" rx="10" fill="#EEF4F9" stroke="#D7E2EC"/><rect x="385" y="737" width="298" height="34" rx="10" fill="#FDECEF" stroke="#DB7890" stroke-width="2"/><text class="label" x="703" y="755" dominant-baseline="middle">4</text>
<text class="axis" x="95" y="815">12 Production Integration</text><rect x="385" y="789" width="820" height="34" rx="10" fill="#EEF4F9" stroke="#D7E2EC"/><rect x="385" y="789" width="74" height="34" rx="10" fill="#E9F7F6" stroke="#55B5AF" stroke-width="2"/><text class="label" x="479" y="807" dominant-baseline="middle">1</text>
<text class="small" x="700.0" y="887" text-anchor="middle">Counts exclude buildSrc and generated build outputs.</text></svg>
